0
SECTION
2
HEADER
9
$INSUNITS
70
4
9
$ACADVER
1
AC1014
9
$HANDSEED
5
FFFF
0
ENDSEC
0
SECTION
2
TABLES
0
TABLE
2
VPORT
5
8
100
AcDbSymbolTable
0
ENDTAB
0
TABLE
2
LTYPE
5
5
100
AcDbSymbolTable
70
2
0
LTYPE
5
14
100
AcDbSymbolTableRecord
100
AcDbLinetypeTableRecord
2
BYBLOCK
70
0
0
LTYPE
5
15
100
AcDbSymbolTableRecord
100
AcDbLinetypeTableRecord
2
BYLAYER
70
0
0
ENDTAB
0
TABLE
2
LAYER
5
2
100
AcDbSymbolTable
70
3
0
LAYER
5
50
100
AcDbSymbolTableRecord
100
AcDbLayerTableRecord
2
0
70
0
6
CONTINUOUS
0
LAYER
5
51
100
AcDbSymbolTableRecord
100
AcDbLayerTableRecord
2
CUTOUTS
70
0
62
1
6
CONTINUOUS
0
LAYER
5
52
100
AcDbSymbolTableRecord
100
AcDbLayerTableRecord
2
PERIMETER
70
0
62
5
6
CONTINUOUS
0
ENDTAB
0
TABLE
2
STYLE
5
3
100
AcDbSymbolTable
70
1
0
STYLE
5
11
100
AcDbSymbolTableRecord
100
AcDbTextStyleTableRecord
2
STANDARD
70
0
0
ENDTAB
0
TABLE
2
VIEW
5
6
100
AcDbSymbolTable
0
ENDTAB
0
TABLE
2
UCS
5
7
100
AcDbSymbolTable
0
ENDTAB
0
TABLE
2
APPID
5
9
100
AcDbSymbolTable
70
1
0
APPID
5
12
100
AcDbSymbolTableRecord
100
AcDbRegAppTableRecord
2
ACAD
70
0
0
ENDTAB
0
TABLE
2
DIMSTYLE
5
A
100
AcDbSymbolTable
0
ENDTAB
0
TABLE
2
BLOCK_RECORD
5
1
100
AcDbSymbolTable
70
2
0
BLOCK_RECORD
5
1F
100
AcDbSymbolTableRecord
100
AcDbBlockTableRecord
2
*MODEL_SPACE
0
BLOCK_RECORD
5
1B
100
AcDbSymbolTableRecord
100
AcDbBlockTableRecord
2
*PAPER_SPACE
0
ENDTAB
0
ENDSEC
0
SECTION
2
BLOCKS
0
BLOCK
5
20
100
AcDbEntity
100
AcDbBlockBegin
2
*MODEL_SPACE
0
ENDBLK
5
21
100
AcDbEntity
100
AcDbBlockEnd
0
BLOCK
5
1C
100
AcDbEntity
100
AcDbBlockBegin
2
*PAPER_SPACE
0
ENDBLK
5
1D
100
AcDbEntity
100
AcDbBlockEnd
0
ENDSEC
0
SECTION
2
ENTITIES
0
CIRCLE
5
100
100
AcDbEntity
8
CUTOUTS
100
AcDbCircle
10
39.123089777437059
20
61.637114363884166
30
0
40
3.9999999999999858
210
0
220
0
230
1
0
CIRCLE
5
101
100
AcDbEntity
8
CUTOUTS
100
AcDbCircle
10
14.558803203376982
20
72.562902327856378
30
0
40
1.0999999999999943
210
0
220
0
230
1
0
CIRCLE
5
102
100
AcDbEntity
8
CUTOUTS
100
AcDbCircle
10
28.558803203376968
20
72.562902327856378
30
0
40
1.0999999999999943
210
0
220
0
230
1
0
CIRCLE
5
103
100
AcDbEntity
8
CUTOUTS
100
AcDbCircle
10
31.456704910805016
20
78.032718112126332
30
0
40
1.0999999999999943
210
0
220
0
230
1
0
CIRCLE
5
104
100
AcDbEntity
8
CUTOUTS
100
AcDbCircle
10
11.66090149594897
20
78.032718112126332
30
0
40
1.0999999999999943
210
0
220
0
230
1
0
CIRCLE
5
105
100
AcDbEntity
8
CUTOUTS
100
AcDbCircle
10
-65.405882272555573
20
78.032718112126332
30
0
40
1.0999999999999943
210
0
220
0
230
1
0
CIRCLE
5
106
100
AcDbEntity
8
CUTOUTS
100
AcDbCircle
10
18.491530967061749
20
48.113468871042571
30
0
40
3.9999999999999858
210
0
220
0
230
1
0
CIRCLE
5
107
100
AcDbEntity
8
CUTOUTS
100
AcDbCircle
10
86.975666804070045
20
78.032718112126332
30
0
40
1.0999999999999943
210
0
220
0
230
1
0
CIRCLE
5
108
100
AcDbEntity
8
CUTOUTS
100
AcDbCircle
10
142.49462869733503
20
78.032718112126332
30
0
40
1.0999999999999943
210
0
220
0
230
1
0
CIRCLE
5
109
100
AcDbEntity
8
CUTOUTS
100
AcDbCircle
10
228.54462869733499
20
78.032718112126332
30
0
40
1.0999999999999943
210
0
220
0
230
1
0
CIRCLE
5
10A
100
AcDbEntity
8
CUTOUTS
100
AcDbCircle
10
228.52271770994801
20
11.501564077181907
30
0
40
1.0999999999999943
210
0
220
0
230
1
0
CIRCLE
5
10B
100
AcDbEntity
8
CUTOUTS
100
AcDbCircle
10
228.54462869733499
20
-55.029589957762539
30
0
40
1.0999999999999943
210
0
220
0
230
1
0
CIRCLE
5
10C
100
AcDbEntity
8
CUTOUTS
100
AcDbCircle
10
142.49462869733503
20
-55.029589957762539
30
0
40
1.0999999999999943
210
0
220
0
230
1
0
CIRCLE
5
10D
100
AcDbEntity
8
CUTOUTS
100
AcDbCircle
10
86.975666804070045
20
-65.983857624827849
30
0
40
1.0999999999999943
210
0
220
0
230
1
0
CIRCLE
5
10E
100
AcDbEntity
8
CUTOUTS
100
AcDbCircle
10
21.752318891286713
20
-78.542623201770269
30
0
40
1.0999999999999943
210
0
220
0
230
1
0
CIRCLE
5
10F
100
AcDbEntity
8
CUTOUTS
100
AcDbCircle
10
-65.405882272555573
20
-60.758990484825986
30
0
40
1.0999999999999943
210
0
220
0
230
1
0
CIRCLE
5
110
100
AcDbEntity
8
CUTOUTS
100
AcDbCircle
10
-142.47266604106011
20
-55.029589957762539
30
0
40
1.0999999999999943
210
0
220
0
230
1
0
CIRCLE
5
111
100
AcDbEntity
8
CUTOUTS
100
AcDbCircle
10
-228.52233791013586
20
-55.029589957762539
30
0
40
1.0999999999999943
210
0
220
0
230
1
0
CIRCLE
5
112
100
AcDbEntity
8
CUTOUTS
100
AcDbCircle
10
-142.47266604106011
20
78.032718112126332
30
0
40
1.0999999999999943
210
0
220
0
230
1
0
CIRCLE
5
113
100
AcDbEntity
8
CUTOUTS
100
AcDbCircle
10
-228.52233791013586
20
11.501564077181907
30
0
40
1.0999999999999943
210
0
220
0
230
1
0
CIRCLE
5
114
100
AcDbEntity
8
CUTOUTS
100
AcDbCircle
10
14.558803203376982
20
60.062902327856378
30
0
40
1.0999999999999943
210
0
220
0
230
1
0
CIRCLE
5
115
100
AcDbEntity
8
CUTOUTS
100
AcDbCircle
10
28.558803203376968
20
60.062902327856378
30
0
40
1.0999999999999943
210
0
220
0
230
1
0
CIRCLE
5
116
100
AcDbEntity
8
CUTOUTS
100
AcDbCircle
10
-228.52233791013586
20
78.032718112126332
30
0
40
1.0999999999999943
210
0
220
0
230
1
0
LINE
5
117
100
AcDbEntity
8
PERIMETER
100
AcDbLine
10
2.4533143352557119
20
83.059035311872705
30
0
11
-218.54746450935423
21
82.978370672023175
31
0
0
LINE
5
118
100
AcDbEntity
8
PERIMETER
100
AcDbLine
10
-218.54746450935423
20
82.978370672023175
30
0
11
-228.52276616243483
21
82.97837067202353
31
0
0
ARC
5
119
100
AcDbEntity
8
PERIMETER
100
AcDbCircle
10
-228.52276616243495
20
77.978370672023487
30
0
40
5.0000000000000533
210
0
220
-0
230
1
100
AcDbArc
50
89.999999999998693
51
180
0
LINE
5
11A
100
AcDbEntity
8
PERIMETER
100
AcDbLine
10
-233.522766162435
20
77.978370672023601
30
0
11
-233.52276616243518
21
68.009312198301302
31
0
0
LINE
5
11B
100
AcDbEntity
8
PERIMETER
100
AcDbLine
10
-233.52276616243518
20
68.009312198301302
30
0
11
-233.51810459248367
21
-45.090841642199692
31
0
0
LINE
5
11C
100
AcDbEntity
8
PERIMETER
100
AcDbLine
10
-233.51810459248367
20
-45.090841642199692
30
0
11
-233.51810459248367
21
-55.059395902889094
31
0
0
ARC
5
11D
100
AcDbEntity
8
PERIMETER
100
AcDbCircle
10
-228.51810459248367
20
-55.059395902889094
30
0
40
5
210
0
220
0
230
1
100
AcDbArc
50
180
51
270
0
LINE
5
11E
100
AcDbEntity
8
PERIMETER
100
AcDbLine
10
-228.51810459248367
20
-60.059395902889094
30
0
11
-218.54746449397314
21
-60.059395902889094
31
0
0
LINE
5
11F
100
AcDbEntity
8
PERIMETER
100
AcDbLine
10
-218.54746449397314
20
-60.059395902889094
30
0
11
-88.563748279452625
21
-60.055531731182924
31
0
0
ARC
5
120
100
AcDbEntity
8
PERIMETER
100
AcDbCircle
10
-88.563303298224753
20
-75.023891848711841
30
0
40
14.968360124143143
210
0
220
-0
230
1
100
AcDbArc
50
75.998616837046995
51
90.001703295892938
0
LINE
5
121
100
AcDbEntity
8
PERIMETER
100
AcDbLine
10
-84.941778630186903
20
-60.500243412976701
30
0
11
3.5531168978397432
21
-82.566768127361044
31
0
0
ARC
5
122
100
AcDbEntity
8
PERIMETER
100
AcDbCircle
10
7.5528697843945025
20
-66.526285159834316
30
0
40
16.531639875856797
210
0
220
0
230
1
100
AcDbArc
50
255.99861683704717
51
269.9979094460308
0
LINE
5
123
100
AcDbEntity
8
PERIMETER
100
AcDbLine
10
7.552266593624708
20
-83.057925024686782
30
0
11
35.95204165105347
21
-83.058961248698353
31
0
0
ARC
5
124
100
AcDbEntity
8
PERIMETER
100
AcDbCircle
10
35.952644841823265
20
-66.527321383845802
30
0
40
16.531639875856889
210
0
220
0
230
1
100
AcDbArc
50
269.99790944603086
51
283.99803311188475
0
LINE
5
125
100
AcDbEntity
8
PERIMETER
100
AcDbLine
10
39.951459843786026
20
-82.568038187190325
30
0
11
128.45173445874136
21
-60.505668397435727
31
0
0
ARC
5
126
100
AcDbEntity
8
PERIMETER
100
AcDbCircle
10
132.07240993126877
20
-75.029528556788478
30
0
40
14.968360124135035
210
0
220
-0
230
1
100
AcDbArc
50
89.997113386018412
51
103.99803311188448
0
LINE
5
127
100
AcDbEntity
8
PERIMETER
100
AcDbLine
10
132.07316405099564
20
-60.061168451650062
30
0
11
218.55266343744202
21
-60.065525368239733
31
0
0
LINE
5
128
100
AcDbEntity
8
PERIMETER
100
AcDbLine
10
218.55266343744202
20
-60.065525368239733
30
0
11
228.52276616243512
21
-60.065525368239676
31
0
0
ARC
5
129
100
AcDbEntity
8
PERIMETER
100
AcDbCircle
10
228.52276616243503
20
-55.065525368239619
30
0
40
5.0000000000000533
210
-0
220
0
230
1
100
AcDbArc
50
-89.999999999999019
51
0
0
LINE
5
12A
100
AcDbEntity
8
PERIMETER
100
AcDbLine
10
233.52276616243512
20
-55.065525368239534
30
0
11
233.52276616243483
21
-45.089913766738036
31
0
0
LINE
5
12B
100
AcDbEntity
8
PERIMETER
100
AcDbLine
10
233.52276616243483
20
-45.089913766738036
30
0
11
233.51576586581248
21
68.008384371895403
31
0
0
LINE
5
12C
100
AcDbEntity
8
PERIMETER
100
AcDbLine
10
233.51576586581248
20
68.008384371895403
30
0
11
233.51576586581271
21
78.044630761324271
31
0
0
ARC
5
12D
100
AcDbEntity
8
PERIMETER
100
AcDbCircle
10
228.51576586581257
20
78.044630761324271
30
0
40
5.0000000000001421
210
0
220
-0
230
1
100
AcDbArc
50
0
51
89.999999999997726
0
LINE
5
12E
100
AcDbEntity
8
PERIMETER
100
AcDbLine
10
228.51576586581277
20
83.044630761324413
30
0
11
218.55266345278505
21
83.044630761324584
31
0
0
LINE
5
12F
100
AcDbEntity
8
PERIMETER
100
AcDbLine
10
218.55266345278505
20
83.044630761324584
30
0
11
40.453314362986532
21
83.059035311872705
31
0
0
LINE
5
130
100
AcDbEntity
8
PERIMETER
100
AcDbLine
10
40.453314362986532
20
83.059035311872705
30
0
11
28.741806420318099
21
83.059035311872464
31
0
0
ARC
5
131
100
AcDbEntity
8
PERIMETER
100
AcDbCircle
10
28.741806420318063
20
82.559035311872492
30
0
40
0.49999999999997158
210
0
220
-0
230
1
100
AcDbArc
50
89.999999999995936
51
180
0
LINE
5
132
100
AcDbEntity
8
PERIMETER
100
AcDbLine
10
28.241806420318092
20
82.559035311872492
30
0
11
28.241806420318092
21
74.92015641300911
31
0
0
ARC
5
133
100
AcDbEntity
8
PERIMETER
100
AcDbCircle
10
27.741806420318085
20
74.92015641300911
30
0
40
0.49999999999998934
210
-0
220
0
230
1
100
AcDbArc
50
-89.999999999995936
51
0
0
LINE
5
134
100
AcDbEntity
8
PERIMETER
100
AcDbLine
10
27.74180642031812
20
74.420156413009124
30
0
11
15.824638457348286
21
74.420156413009124
31
0
0
ARC
5
135
100
AcDbEntity
8
PERIMETER
100
AcDbCircle
10
15.824638457348286
20
74.920156413009124
30
0
40
0.50000000000000711
210
0
220
0
230
1
100
AcDbArc
50
180
51
270
0
LINE
5
136
100
AcDbEntity
8
PERIMETER
100
AcDbLine
10
15.324638457348279
20
74.920156413009124
30
0
11
15.324638457348279
21
82.559035311872876
31
0
0
ARC
5
137
100
AcDbEntity
8
PERIMETER
100
AcDbCircle
10
14.824638457348343
20
82.559035311872947
30
0
40
0.49999999999993605
210
-0
220
0
230
1
100
AcDbArc
50
0
51
90.000000000008143
0
LINE
5
138
100
AcDbEntity
8
PERIMETER
100
AcDbLine
10
14.824638457348271
20
83.05903531187289
30
0
11
2.4533143352557119
21
83.059035311872705
31
0
0
ENDSEC
0
SECTION
2
OBJECTS
0
DICTIONARY
5
C
100
AcDbDictionary
3
ACAD_GROUP
350
D
3
ACAD_MLINESTYLE
350
17
0
DICTIONARY
5
D
100
AcDbDictionary
0
DICTIONARY
5
1A
330
C
100
AcDbDictionary
0
DICTIONARY
5
17
100
AcDbDictionary
0
ENDSEC
0
EOF
