0
SECTION
2
HEADER
9
$INSUNITS
70
4
9
$ACADVER
1
AC1014
9
$HANDSEED
5
FFFF
0
ENDSEC
0
SECTION
2
TABLES
0
TABLE
2
VPORT
5
8
100
AcDbSymbolTable
0
ENDTAB
0
TABLE
2
LTYPE
5
5
100
AcDbSymbolTable
70
2
0
LTYPE
5
14
100
AcDbSymbolTableRecord
100
AcDbLinetypeTableRecord
2
BYBLOCK
70
0
0
LTYPE
5
15
100
AcDbSymbolTableRecord
100
AcDbLinetypeTableRecord
2
BYLAYER
70
0
0
ENDTAB
0
TABLE
2
LAYER
5
2
100
AcDbSymbolTable
70
3
0
LAYER
5
50
100
AcDbSymbolTableRecord
100
AcDbLayerTableRecord
2
0
70
0
6
CONTINUOUS
0
LAYER
5
51
100
AcDbSymbolTableRecord
100
AcDbLayerTableRecord
2
CUTOUTS
70
0
62
1
6
CONTINUOUS
0
LAYER
5
52
100
AcDbSymbolTableRecord
100
AcDbLayerTableRecord
2
PERIMETER
70
0
62
5
6
CONTINUOUS
0
ENDTAB
0
TABLE
2
STYLE
5
3
100
AcDbSymbolTable
70
1
0
STYLE
5
11
100
AcDbSymbolTableRecord
100
AcDbTextStyleTableRecord
2
STANDARD
70
0
0
ENDTAB
0
TABLE
2
VIEW
5
6
100
AcDbSymbolTable
0
ENDTAB
0
TABLE
2
UCS
5
7
100
AcDbSymbolTable
0
ENDTAB
0
TABLE
2
APPID
5
9
100
AcDbSymbolTable
70
1
0
APPID
5
12
100
AcDbSymbolTableRecord
100
AcDbRegAppTableRecord
2
ACAD
70
0
0
ENDTAB
0
TABLE
2
DIMSTYLE
5
A
100
AcDbSymbolTable
0
ENDTAB
0
TABLE
2
BLOCK_RECORD
5
1
100
AcDbSymbolTable
70
2
0
BLOCK_RECORD
5
1F
100
AcDbSymbolTableRecord
100
AcDbBlockTableRecord
2
*MODEL_SPACE
0
BLOCK_RECORD
5
1B
100
AcDbSymbolTableRecord
100
AcDbBlockTableRecord
2
*PAPER_SPACE
0
ENDTAB
0
ENDSEC
0
SECTION
2
BLOCKS
0
BLOCK
5
20
100
AcDbEntity
100
AcDbBlockBegin
2
*MODEL_SPACE
0
ENDBLK
5
21
100
AcDbEntity
100
AcDbBlockEnd
0
BLOCK
5
1C
100
AcDbEntity
100
AcDbBlockBegin
2
*PAPER_SPACE
0
ENDBLK
5
1D
100
AcDbEntity
100
AcDbBlockEnd
0
ENDSEC
0
SECTION
2
ENTITIES
0
CIRCLE
5
100
100
AcDbEntity
8
CUTOUTS
100
AcDbCircle
10
228.54462869733499
20
78.032718112126446
30
0
40
1.6000000000000369
210
0
220
0
230
1
0
CIRCLE
5
101
100
AcDbEntity
8
CUTOUTS
100
AcDbCircle
10
142.49462869733503
20
78.032718112126446
30
0
40
1.6000000000000369
210
0
220
0
230
1
0
CIRCLE
5
102
100
AcDbEntity
8
CUTOUTS
100
AcDbCircle
10
31.456704910805016
20
78.032718112126446
30
0
40
1.6000000000000014
210
0
220
0
230
1
0
CIRCLE
5
103
100
AcDbEntity
8
CUTOUTS
100
AcDbCircle
10
142.49462869733503
20
-55.029589957762433
30
0
40
1.6000000000000369
210
0
220
0
230
1
0
CIRCLE
5
104
100
AcDbEntity
8
CUTOUTS
100
AcDbCircle
10
-65.405882272555573
20
-60.758990484825887
30
0
40
1.6000000000000014
210
0
220
0
230
1
0
CIRCLE
5
105
100
AcDbEntity
8
CUTOUTS
100
AcDbCircle
10
228.52271770994801
20
11.501564077182014
30
0
40
1.6000000000000369
210
0
220
0
230
1
0
CIRCLE
5
106
100
AcDbEntity
8
CUTOUTS
100
AcDbCircle
10
-142.47266604106011
20
-55.029589957762433
30
0
40
1.6000000000000192
210
0
220
0
230
1
0
CIRCLE
5
107
100
AcDbEntity
8
CUTOUTS
100
AcDbCircle
10
228.54462869733499
20
-55.029589957762433
30
0
40
1.6000000000000369
210
0
220
0
230
1
0
CIRCLE
5
108
100
AcDbEntity
8
CUTOUTS
100
AcDbCircle
10
11.66090149594897
20
78.032718112126446
30
0
40
1.6000000000000014
210
0
220
0
230
1
0
CIRCLE
5
109
100
AcDbEntity
8
CUTOUTS
100
AcDbCircle
10
-142.47266604106011
20
78.032718112126446
30
0
40
1.6000000000000192
210
0
220
0
230
1
0
CIRCLE
5
10A
100
AcDbEntity
8
CUTOUTS
100
AcDbCircle
10
-228.52233791013586
20
11.501564077182014
30
0
40
1.6000000000000014
210
0
220
0
230
1
0
CIRCLE
5
10B
100
AcDbEntity
8
CUTOUTS
100
AcDbCircle
10
-65.405882272555573
20
78.032718112126446
30
0
40
1.6000000000000014
210
0
220
0
230
1
0
CIRCLE
5
10C
100
AcDbEntity
8
CUTOUTS
100
AcDbCircle
10
-228.52233791013586
20
78.032718112126446
30
0
40
1.6000000000000014
210
0
220
0
230
1
0
CIRCLE
5
10D
100
AcDbEntity
8
CUTOUTS
100
AcDbCircle
10
-228.52233791013586
20
-55.029589957762433
30
0
40
1.6000000000000014
210
0
220
0
230
1
0
CIRCLE
5
10E
100
AcDbEntity
8
CUTOUTS
100
AcDbCircle
10
21.752318891286713
20
-78.542623201770155
30
0
40
1.6000000000000014
210
0
220
0
230
1
0
CIRCLE
5
10F
100
AcDbEntity
8
CUTOUTS
100
AcDbCircle
10
86.975666804070045
20
78.032718112126446
30
0
40
1.6000000000000369
210
0
220
0
230
1
0
CIRCLE
5
110
100
AcDbEntity
8
CUTOUTS
100
AcDbCircle
10
86.975666804070045
20
-65.983857624827749
30
0
40
1.6000000000000369
210
0
220
0
230
1
0
LINE
5
111
100
AcDbEntity
8
PERIMETER
100
AcDbLine
10
2.4531319013956576
20
74.527394963619287
30
0
11
2.4529142095035539
21
75.123815871070207
31
0
0
ARC
5
112
100
AcDbEntity
8
PERIMETER
100
AcDbCircle
10
1.953131934701311
20
74.527212465089463
30
0
40
0.50000000000004341
210
-0
220
0
230
1
100
AcDbArc
50
-89.979087208479896
51
0.020912791506481426
0
LINE
5
113
100
AcDbEntity
8
PERIMETER
100
AcDbLine
10
-218.54746457840821
20
73.946730357026667
30
0
11
1.9533144332311636
21
74.027212498395144
31
0
0
LINE
5
114
100
AcDbEntity
8
PERIMETER
100
AcDbLine
10
-222.4917551842978
20
73.946805499707025
30
0
11
-218.54746457840821
21
73.946730357026667
31
0
0
ARC
5
115
100
AcDbEntity
8
PERIMETER
100
AcDbCircle
10
-222.49179328629782
20
71.946805500069985
30
0
40
1.9999999999999882
210
0
220
-0
230
1
100
AcDbArc
50
89.998908458103884
51
180.00971440899269
0
LINE
5
116
100
AcDbEntity
8
PERIMETER
100
AcDbLine
10
-224.49112571925698
20
68.009312172147034
30
0
11
-224.49179325755114
21
71.946466403227248
31
0
0
LINE
5
117
100
AcDbEntity
8
PERIMETER
100
AcDbLine
10
-224.48646414931102
20
-45.090841533530494
30
0
11
-224.49112571925698
21
68.009312172147034
31
0
0
LINE
5
118
100
AcDbEntity
8
PERIMETER
100
AcDbLine
10
-224.48430936626494
20
-49.027204296439066
30
0
11
-224.48646414931102
21
-45.090841533530494
31
0
0
ARC
5
119
100
AcDbEntity
8
PERIMETER
100
AcDbCircle
10
-222.48430966591667
20
-49.026109487422218
30
0
40
1.9999999999999947
210
0
220
0
230
1
100
AcDbArc
50
180.03136396957581
51
269.97603931214496
0
LINE
5
11A
100
AcDbEntity
8
PERIMETER
100
AcDbLine
10
-218.54746455689548
20
-51.027756023043409
30
0
11
-222.48514605168052
21
-51.026109312536917
31
0
0
LINE
5
11B
100
AcDbEntity
8
PERIMETER
100
AcDbLine
10
-88.564016773139912
20
-51.023891859317203
30
0
11
-218.54746455689548
21
-51.027756023043409
31
0
0
ARC
5
11C
100
AcDbEntity
8
PERIMETER
100
AcDbCircle
10
-88.563303298224724
20
-75.0238918487116
30
0
40
23.999999999999527
210
0
220
-0
230
1
100
AcDbArc
50
75.998616837047123
51
90.001703295893194
0
LINE
5
11D
100
AcDbEntity
8
PERIMETER
100
AcDbLine
10
5.7382798904438559
20
-73.803459303468244
30
0
11
-82.75661563758284
21
-51.736934589083901
31
0
0
ARC
5
11E
100
AcDbEntity
8
PERIMETER
100
AcDbCircle
10
7.552869784394538
20
-66.526285159833918
30
0
40
7.5000000000005382
210
0
220
0
230
1
100
AcDbArc
50
255.99861683704768
51
269.99790944603086
0
LINE
5
11F
100
AcDbEntity
8
PERIMETER
100
AcDbLine
10
35.952371188948682
20
-74.027321378853642
30
0
11
7.5525961315199552
21
-74.026285154842043
31
0
0
ARC
5
120
100
AcDbEntity
8
PERIMETER
100
AcDbCircle
10
35.952644841823194
20
-66.527321383845347
30
0
40
7.5000000000006883
210
0
220
0
230
1
100
AcDbArc
50
269.99790944603137
51
283.99803311188492
0
LINE
5
121
100
AcDbEntity
8
PERIMETER
100
AcDbLine
10
126.26708385546723
20
-51.742231823306923
30
0
11
37.766809240511989
21
-73.804601613061493
31
0
0
ARC
5
122
100
AcDbEntity
8
PERIMETER
100
AcDbCircle
10
132.07240993126871
20
-75.029528556787454
30
0
40
23.999999999990695
210
0
220
-0
230
1
100
AcDbArc
50
89.997113386018214
51
103.99803311188514
0
LINE
5
123
100
AcDbEntity
8
PERIMETER
100
AcDbLine
10
218.55266343848842
20
-51.033885480920858
30
0
11
132.07361907330539
21
-51.029528587255598
31
0
0
LINE
5
124
100
AcDbEntity
8
PERIMETER
100
AcDbLine
10
222.49105139320665
20
-51.034099047256703
30
0
11
218.55266343848842
21
-51.033885480920858
31
0
0
ARC
5
125
100
AcDbEntity
8
PERIMETER
100
AcDbCircle
10
222.49115984688768
20
-49.03409905019722
30
0
40
2.0000000000000333
210
0
220
0
230
1
100
AcDbArc
50
-90.003106969099548
51
0.00048749802345084706
0
LINE
5
126
100
AcDbEntity
8
PERIMETER
100
AcDbLine
10
224.49112628806813
20
-45.089913780001382
30
0
11
224.49115984681529
21
-49.034082033302866
31
0
0
LINE
5
127
100
AcDbEntity
8
PERIMETER
100
AcDbLine
10
224.4841259914453
20
68.008384366295729
30
0
11
224.49112628806813
21
-45.089913780001382
31
0
0
LINE
5
128
100
AcDbEntity
8
PERIMETER
100
AcDbLine
10
224.48379143242531
20
72.013885857018039
30
0
11
224.4841259914453
21
68.008384366295729
31
0
0
ARC
5
129
100
AcDbEntity
8
PERIMETER
100
AcDbCircle
10
222.48379143940167
20
72.013718807264269
30
0
40
2.0000000000000409
210
0
220
-0
230
1
100
AcDbArc
50
0.0047856228381447626
51
90.010611660741716
0
LINE
5
12A
100
AcDbEntity
8
PERIMETER
100
AcDbLine
10
218.55266342246463
20
74.012990763553034
30
0
11
222.48342102256569
21
74.013718772962122
31
0
0
LINE
5
12B
100
AcDbEntity
8
PERIMETER
100
AcDbLine
10
40.953314370943374
20
74.02735487444842
30
0
11
218.55266342246463
21
74.012990763553034
31
0
0
ARC
5
12C
100
AcDbEntity
8
PERIMETER
100
AcDbCircle
10
40.953354877579962
20
74.52818310865068
30
0
40
0.50082823584033387
210
0
220
0
230
1
100
AcDbArc
50
179.99536595754381
51
269.99536595751766
0
LINE
5
12D
100
AcDbEntity
8
PERIMETER
100
AcDbLine
10
40.452574825951615
20
75.123957929950649
30
0
11
40.452526643377702
21
74.528223615287303
31
0
0
ARC
5
12E
100
AcDbEntity
8
PERIMETER
100
AcDbCircle
10
39.952574827586957
20
75.123998369600116
30
0
40
0.50000000000002276
210
-0
220
0
230
1
100
AcDbArc
50
-0.0046340423775607662
51
90
0
LINE
5
12F
100
AcDbEntity
8
PERIMETER
100
AcDbLine
10
28.693421575536
20
75.623998369600116
30
0
11
39.952574827586957
21
75.62399836960013
31
0
0
ARC
5
130
100
AcDbEntity
8
PERIMETER
100
AcDbCircle
10
28.693421575536
20
76.123998369600116
30
0
40
0.50000000000000711
210
0
220
0
230
1
100
AcDbArc
50
180
51
270
0
LINE
5
131
100
AcDbEntity
8
PERIMETER
100
AcDbLine
10
28.193421575535993
20
82.559035311872805
30
0
11
28.193421575535993
21
76.123998369600145
31
0
0
ARC
5
132
100
AcDbEntity
8
PERIMETER
100
AcDbCircle
10
28.693421575535965
20
82.559035311872847
30
0
40
0.49999999999997158
210
0
220
-0
230
1
100
AcDbArc
50
89.999999999995936
51
180
0
LINE
5
133
100
AcDbEntity
8
PERIMETER
100
AcDbLine
10
40.453314362986532
20
83.059035311872819
30
0
11
28.693421575536
21
83.059035311872819
31
0
0
LINE
5
134
100
AcDbEntity
8
PERIMETER
100
AcDbLine
10
218.55266345278505
20
83.044630761324697
30
0
11
40.453314362986532
21
83.059035311872819
31
0
0
LINE
5
135
100
AcDbEntity
8
PERIMETER
100
AcDbLine
10
228.51576586581277
20
83.044630761324512
30
0
11
218.55266345278505
21
83.044630761324697
31
0
0
ARC
5
136
100
AcDbEntity
8
PERIMETER
100
AcDbCircle
10
228.51576586581257
20
78.04463076132437
30
0
40
5.0000000000001421
210
0
220
-0
230
1
100
AcDbArc
50
0
51
89.999999999997726
0
LINE
5
137
100
AcDbEntity
8
PERIMETER
100
AcDbLine
10
233.51576586581248
20
68.008384371895517
30
0
11
233.51576586581271
21
78.04463076132437
31
0
0
LINE
5
138
100
AcDbEntity
8
PERIMETER
100
AcDbLine
10
233.52276616243483
20
-45.089913766737922
30
0
11
233.51576586581248
21
68.008384371895517
31
0
0
LINE
5
139
100
AcDbEntity
8
PERIMETER
100
AcDbLine
10
233.52276616243512
20
-55.065525368239427
30
0
11
233.52276616243483
21
-45.089913766737922
31
0
0
ARC
5
13A
100
AcDbEntity
8
PERIMETER
100
AcDbCircle
10
228.52276616243503
20
-55.06552536823952
30
0
40
5.0000000000000533
210
-0
220
0
230
1
100
AcDbArc
50
-89.999999999999019
51
0
0
LINE
5
13B
100
AcDbEntity
8
PERIMETER
100
AcDbLine
10
218.55266343744202
20
-60.065525368239619
30
0
11
228.52276616243512
21
-60.06552536823957
31
0
0
LINE
5
13C
100
AcDbEntity
8
PERIMETER
100
AcDbLine
10
132.07316405099564
20
-60.061168451649955
30
0
11
218.55266343744202
21
-60.065525368239619
31
0
0
ARC
5
13D
100
AcDbEntity
8
PERIMETER
100
AcDbCircle
10
132.07240993126871
20
-75.029528556787454
30
0
40
14.968360124134122
210
0
220
-0
230
1
100
AcDbArc
50
89.997113386018171
51
103.99803311188514
0
LINE
5
13E
100
AcDbEntity
8
PERIMETER
100
AcDbLine
10
39.951459843786061
20
-82.568038187190211
30
0
11
128.45173445874136
21
-60.505668397435613
31
0
0
ARC
5
13F
100
AcDbEntity
8
PERIMETER
100
AcDbCircle
10
35.952644841823194
20
-66.527321383845347
30
0
40
16.531639875857252
210
0
220
0
230
1
100
AcDbArc
50
269.99790944603109
51
283.99803311188475
0
LINE
5
140
100
AcDbEntity
8
PERIMETER
100
AcDbLine
10
7.5522665936246725
20
-83.057925024686682
30
0
11
35.95204165105347
21
-83.058961248698267
31
0
0
ARC
5
141
100
AcDbEntity
8
PERIMETER
100
AcDbCircle
10
7.552869784394538
20
-66.526285159833918
30
0
40
16.531639875857088
210
0
220
0
230
1
100
AcDbArc
50
255.99861683704731
51
269.99790944603063
0
LINE
5
142
100
AcDbEntity
8
PERIMETER
100
AcDbLine
10
-84.941778630186903
20
-60.500243412976587
30
0
11
3.5531168978397432
21
-82.566768127360945
31
0
0
ARC
5
143
100
AcDbEntity
8
PERIMETER
100
AcDbCircle
10
-88.563303298224724
20
-75.0238918487116
30
0
40
14.968360124143
210
0
220
-0
230
1
100
AcDbArc
50
75.998616837046981
51
90.001703295892995
0
LINE
5
144
100
AcDbEntity
8
PERIMETER
100
AcDbLine
10
-218.54746449397314
20
-60.05939590288898
30
0
11
-88.563748279452625
21
-60.055531731182811
31
0
0
LINE
5
145
100
AcDbEntity
8
PERIMETER
100
AcDbLine
10
-228.51810459248367
20
-60.05939590288898
30
0
11
-218.54746449397314
21
-60.05939590288898
31
0
0
ARC
5
146
100
AcDbEntity
8
PERIMETER
100
AcDbCircle
10
-228.51810459248367
20
-55.05939590288898
30
0
40
5
210
0
220
0
230
1
100
AcDbArc
50
180
51
270
0
LINE
5
147
100
AcDbEntity
8
PERIMETER
100
AcDbLine
10
-233.51810459248367
20
-45.090841642199578
30
0
11
-233.51810459248367
21
-55.05939590288898
31
0
0
LINE
5
148
100
AcDbEntity
8
PERIMETER
100
AcDbLine
10
-233.52276616243518
20
68.009312198301402
30
0
11
-233.51810459248367
21
-45.090841642199578
31
0
0
LINE
5
149
100
AcDbEntity
8
PERIMETER
100
AcDbLine
10
-233.522766162435
20
77.978370672023715
30
0
11
-233.52276616243518
21
68.009312198301402
31
0
0
ARC
5
14A
100
AcDbEntity
8
PERIMETER
100
AcDbCircle
10
-228.52276616243495
20
77.978370672023587
30
0
40
5.0000000000000533
210
0
220
-0
230
1
100
AcDbArc
50
89.999999999998693
51
180
0
LINE
5
14B
100
AcDbEntity
8
PERIMETER
100
AcDbLine
10
-218.5474645093542
20
82.978370672023289
30
0
11
-228.52276616243483
21
82.978370672023644
31
0
0
LINE
5
14C
100
AcDbEntity
8
PERIMETER
100
AcDbLine
10
2.4533143352557119
20
83.059035311872819
30
0
11
-218.5474645093542
21
82.978370672023289
31
0
0
LINE
5
14D
100
AcDbEntity
8
PERIMETER
100
AcDbLine
10
14.69342157553605
20
83.059035311872819
30
0
11
2.4533143352557119
21
83.059035311872819
31
0
0
ARC
5
14E
100
AcDbEntity
8
PERIMETER
100
AcDbCircle
10
14.693421575536085
20
82.559035311872847
30
0
40
0.49999999999997158
210
-0
220
0
230
1
100
AcDbArc
50
0
51
90.000000000004079
0
LINE
5
14F
100
AcDbEntity
8
PERIMETER
100
AcDbLine
10
15.193421575536021
20
76.123998369600073
30
0
11
15.193421575536057
21
82.559035311872805
31
0
0
ARC
5
150
100
AcDbEntity
8
PERIMETER
100
AcDbCircle
10
14.693421575536014
20
76.123998369600059
30
0
40
0.50000000000000711
210
-0
220
0
230
1
100
AcDbArc
50
-90
51
0
0
LINE
5
151
100
AcDbEntity
8
PERIMETER
100
AcDbLine
10
2.9529141761977939
20
75.623998369600031
30
0
11
14.693421575536014
21
75.623998369600045
31
0
0
ARC
5
152
100
AcDbEntity
8
PERIMETER
100
AcDbCircle
10
2.9529141761976874
20
75.123998369600173
30
0
40
0.49999999999984723
210
0
220
-0
230
1
100
AcDbArc
50
89.999999999987793
51
180.0209127915239
0
ENDSEC
0
SECTION
2
OBJECTS
0
DICTIONARY
5
C
100
AcDbDictionary
3
ACAD_GROUP
350
D
3
ACAD_MLINESTYLE
350
17
0
DICTIONARY
5
D
100
AcDbDictionary
0
DICTIONARY
5
1A
330
C
100
AcDbDictionary
0
DICTIONARY
5
17
100
AcDbDictionary
0
ENDSEC
0
EOF
