0
SECTION
2
HEADER
9
$INSUNITS
70
4
9
$ACADVER
1
AC1014
9
$HANDSEED
5
FFFF
0
ENDSEC
0
SECTION
2
TABLES
0
TABLE
2
VPORT
5
8
100
AcDbSymbolTable
0
ENDTAB
0
TABLE
2
LTYPE
5
5
100
AcDbSymbolTable
70
2
0
LTYPE
5
14
100
AcDbSymbolTableRecord
100
AcDbLinetypeTableRecord
2
BYBLOCK
70
0
0
LTYPE
5
15
100
AcDbSymbolTableRecord
100
AcDbLinetypeTableRecord
2
BYLAYER
70
0
0
ENDTAB
0
TABLE
2
LAYER
5
2
100
AcDbSymbolTable
70
3
0
LAYER
5
50
100
AcDbSymbolTableRecord
100
AcDbLayerTableRecord
2
0
70
0
6
CONTINUOUS
0
LAYER
5
51
100
AcDbSymbolTableRecord
100
AcDbLayerTableRecord
2
CUTOUTS
70
0
62
1
6
CONTINUOUS
0
LAYER
5
52
100
AcDbSymbolTableRecord
100
AcDbLayerTableRecord
2
PERIMETER
70
0
62
5
6
CONTINUOUS
0
ENDTAB
0
TABLE
2
STYLE
5
3
100
AcDbSymbolTable
70
1
0
STYLE
5
11
100
AcDbSymbolTableRecord
100
AcDbTextStyleTableRecord
2
STANDARD
70
0
0
ENDTAB
0
TABLE
2
VIEW
5
6
100
AcDbSymbolTable
0
ENDTAB
0
TABLE
2
UCS
5
7
100
AcDbSymbolTable
0
ENDTAB
0
TABLE
2
APPID
5
9
100
AcDbSymbolTable
70
1
0
APPID
5
12
100
AcDbSymbolTableRecord
100
AcDbRegAppTableRecord
2
ACAD
70
0
0
ENDTAB
0
TABLE
2
DIMSTYLE
5
A
100
AcDbSymbolTable
0
ENDTAB
0
TABLE
2
BLOCK_RECORD
5
1
100
AcDbSymbolTable
70
2
0
BLOCK_RECORD
5
1F
100
AcDbSymbolTableRecord
100
AcDbBlockTableRecord
2
*MODEL_SPACE
0
BLOCK_RECORD
5
1B
100
AcDbSymbolTableRecord
100
AcDbBlockTableRecord
2
*PAPER_SPACE
0
ENDTAB
0
ENDSEC
0
SECTION
2
BLOCKS
0
BLOCK
5
20
100
AcDbEntity
100
AcDbBlockBegin
2
*MODEL_SPACE
0
ENDBLK
5
21
100
AcDbEntity
100
AcDbBlockEnd
0
BLOCK
5
1C
100
AcDbEntity
100
AcDbBlockBegin
2
*PAPER_SPACE
0
ENDBLK
5
1D
100
AcDbEntity
100
AcDbBlockEnd
0
ENDSEC
0
SECTION
2
ENTITIES
0
CIRCLE
5
100
100
AcDbEntity
8
CUTOUTS
100
AcDbCircle
10
31.456704910805016
20
78.032718112126446
30
0
40
1.6000000000000014
210
0
220
0
230
1
0
CIRCLE
5
101
100
AcDbEntity
8
CUTOUTS
100
AcDbCircle
10
-65.405882272555573
20
-60.758990484825887
30
0
40
1.6000000000000014
210
0
220
0
230
1
0
CIRCLE
5
102
100
AcDbEntity
8
CUTOUTS
100
AcDbCircle
10
-65.405882272555573
20
78.032718112126446
30
0
40
1.6000000000000014
210
0
220
0
230
1
0
CIRCLE
5
103
100
AcDbEntity
8
CUTOUTS
100
AcDbCircle
10
-228.52233791013586
20
78.032718112126446
30
0
40
1.6000000000000014
210
0
220
0
230
1
0
CIRCLE
5
104
100
AcDbEntity
8
CUTOUTS
100
AcDbCircle
10
-228.52233791013586
20
-55.029589957762433
30
0
40
1.6000000000000014
210
0
220
0
230
1
0
CIRCLE
5
105
100
AcDbEntity
8
CUTOUTS
100
AcDbCircle
10
228.54462869733499
20
78.032718112126446
30
0
40
1.5999999999999659
210
0
220
0
230
1
0
CIRCLE
5
106
100
AcDbEntity
8
CUTOUTS
100
AcDbCircle
10
-142.47266604106011
20
78.032718112126446
30
0
40
1.6000000000000014
210
0
220
0
230
1
0
CIRCLE
5
107
100
AcDbEntity
8
CUTOUTS
100
AcDbCircle
10
-228.52233791013586
20
11.501564077182014
30
0
40
1.6000000000000014
210
0
220
0
230
1
0
CIRCLE
5
108
100
AcDbEntity
8
CUTOUTS
100
AcDbCircle
10
21.752318891286713
20
-78.542623201770155
30
0
40
1.6000000000000014
210
0
220
0
230
1
0
CIRCLE
5
109
100
AcDbEntity
8
CUTOUTS
100
AcDbCircle
10
86.975666804070045
20
78.032718112126446
30
0
40
1.5999999999999659
210
0
220
0
230
1
0
CIRCLE
5
10A
100
AcDbEntity
8
CUTOUTS
100
AcDbCircle
10
142.49462869733503
20
-55.029589957762433
30
0
40
1.5999999999999659
210
0
220
0
230
1
0
CIRCLE
5
10B
100
AcDbEntity
8
CUTOUTS
100
AcDbCircle
10
228.54462869733499
20
-55.029589957762433
30
0
40
1.5999999999999659
210
0
220
0
230
1
0
CIRCLE
5
10C
100
AcDbEntity
8
CUTOUTS
100
AcDbCircle
10
86.975666804070045
20
-65.983857624827749
30
0
40
1.5999999999999659
210
0
220
0
230
1
0
CIRCLE
5
10D
100
AcDbEntity
8
CUTOUTS
100
AcDbCircle
10
228.52271770994801
20
11.501564077182014
30
0
40
1.5999999999999659
210
0
220
0
230
1
0
CIRCLE
5
10E
100
AcDbEntity
8
CUTOUTS
100
AcDbCircle
10
-142.47266604106011
20
-55.029589957762433
30
0
40
1.6000000000000014
210
0
220
0
230
1
0
CIRCLE
5
10F
100
AcDbEntity
8
CUTOUTS
100
AcDbCircle
10
11.66090149594897
20
78.032718112126446
30
0
40
1.6000000000000014
210
0
220
0
230
1
0
CIRCLE
5
110
100
AcDbEntity
8
CUTOUTS
100
AcDbCircle
10
142.49462869733503
20
78.032718112126446
30
0
40
1.5999999999999659
210
0
220
0
230
1
0
ARC
5
111
100
AcDbEntity
8
CUTOUTS
100
AcDbCircle
10
-38.654328969922425
20
66.425567386236224
30
0
40
0.9999999999999637
210
0
220
0
230
1
100
AcDbArc
50
256.00010018689568
51
346.00010018689591
0
LINE
5
112
100
AcDbEntity
8
CUTOUTS
100
AcDbLine
10
-37.684032820625433
20
66.183647187287505
30
0
11
-37.591798702757337
21
66.553580784358459
31
0
0
ARC
5
113
100
AcDbEntity
8
CUTOUTS
100
AcDbCircle
10
-36.621502553460346
20
66.311660585409768
30
0
40
0.9999999999999637
210
0
220
-0
230
1
100
AcDbArc
50
76.00010018689548
51
166.00010018689767
0
LINE
5
114
100
AcDbEntity
8
CUTOUTS
100
AcDbLine
10
-36.379582354511619
20
67.281956734706739
30
0
11
-18.865796307373479
21
62.915311965541569
31
0
0
ARC
5
115
100
AcDbEntity
8
CUTOUTS
100
AcDbCircle
10
-19.107715268207599
20
61.945020782088029
30
0
40
0.99999488213625043
210
-0
220
0
230
1
100
AcDbArc
50
-14.000966111261803
51
76.000100186895622
0
LINE
5
116
100
AcDbEntity
8
CUTOUTS
100
AcDbLine
10
-18.137428587134039
20
61.703083763775517
30
0
11
-18.229877944867461
21
61.332316275988092
31
0
0
ARC
5
117
100
AcDbEntity
8
CUTOUTS
100
AcDbCircle
10
-17.259586297973506
20
61.090378019468531
30
0
40
0.99999999999995404
210
0
220
0
230
1
100
AcDbArc
50
165.99903388873656
51
256.00010018689568
0
LINE
5
118
100
AcDbEntity
8
CUTOUTS
100
AcDbLine
10
-17.501506496922232
20
60.120081870171553
30
0
11
-0.95808161980645679
21
55.9953831013908
31
0
0
ARC
5
119
100
AcDbEntity
8
CUTOUTS
100
AcDbCircle
10
-1.2000018187552186
20
55.025086952093773
30
0
40
1.0000000000000455
210
-0
220
0
230
1
100
AcDbArc
50
-13.99989981310242
51
76.000100186894187
0
LINE
5
11A
100
AcDbEntity
8
CUTOUTS
100
AcDbLine
10
-0.22970566945815563
20
54.783166753145061
30
0
11
-0.32191890800053358
21
54.413316899099428
31
0
0
ARC
5
11B
100
AcDbEntity
8
CUTOUTS
100
AcDbCircle
10
0.64837724129652941
20
54.171396700150694
30
0
40
1.0000000000000502
210
0
220
0
230
1
100
AcDbArc
50
166.00010018689639
51
256.00010018689665
0
LINE
5
11C
100
AcDbEntity
8
CUTOUTS
100
AcDbLine
10
0.40645704234780311
20
53.201100550853639
30
0
11
16.949735525408016
21
49.07642869186958
31
0
0
ARC
5
11D
100
AcDbEntity
8
CUTOUTS
100
AcDbCircle
10
16.707815326459325
20
48.106132542572624
30
0
40
0.9999999999999577
210
-0
220
0
230
1
100
AcDbArc
50
-13.995623332540951
51
76.000100186897257
0
LINE
5
11E
100
AcDbEntity
8
CUTOUTS
100
AcDbLine
10
17.678129529654534
20
47.864284765908124
30
0
11
13.312793203041728
21
30.350177760852723
31
0
0
ARC
5
11F
100
AcDbEntity
8
CUTOUTS
100
AcDbCircle
10
12.342478999846378
20
30.592025537517262
30
0
40
1.0000000000000746
210
0
220
0
230
1
100
AcDbArc
50
255.99903388873827
51
346.00437666745887
0
LINE
5
120
100
AcDbEntity
8
CUTOUTS
100
AcDbLine
10
12.100540743326818
20
29.621733890623183
30
0
11
-5.4142378060454632
21
33.988972338080202
31
0
0
ARC
5
121
100
AcDbEntity
8
CUTOUTS
100
AcDbCircle
10
-5.1722995495258317
20
34.959263984974172
30
0
40
1.0000000000000111
210
0
220
0
230
1
100
AcDbArc
50
166.00010018689744
51
255.99903388873295
0
LINE
5
122
100
AcDbEntity
8
CUTOUTS
100
AcDbLine
10
-6.1425956988228592
20
35.201184183922877
30
0
11
-6.0504523571511726
21
35.570753694843887
31
0
0
ARC
5
123
100
AcDbEntity
8
CUTOUTS
100
AcDbCircle
10
-7.0207485064483066
20
35.812673893792635
30
0
40
1.0000000000001232
210
-0
220
0
230
1
100
AcDbArc
50
-13.999899813103438
51
76.000100186895722
0
LINE
5
124
100
AcDbEntity
8
CUTOUTS
100
AcDbLine
10
-6.7788283074995448
20
36.782970043089769
30
0
11
-23.322289645345293
21
40.907687492552576
31
0
0
ARC
5
125
100
AcDbEntity
8
CUTOUTS
100
AcDbCircle
10
-23.080369446396567
20
41.877983641849603
30
0
40
1.0000000000000153
210
0
220
0
230
1
100
AcDbArc
50
166.00010018689628
51
256.00010018689625
0
LINE
5
126
100
AcDbEntity
8
CUTOUTS
100
AcDbLine
10
-24.050665595693594
20
42.119903840798329
30
0
11
-23.95845235715111
21
42.489753694844353
31
0
0
ARC
5
127
100
AcDbEntity
8
CUTOUTS
100
AcDbCircle
10
-24.928748506447818
20
42.731673893792994
30
0
40
0.99999999999968359
210
-0
220
0
230
1
100
AcDbArc
50
-13.999899813103438
51
76.000100186895779
0
LINE
5
128
100
AcDbEntity
8
CUTOUTS
100
AcDbLine
10
-24.686828307499162
20
43.701970043089702
30
0
11
-40.260122096280391
21
47.58479935700413
31
0
0
ARC
5
129
100
AcDbEntity
8
CUTOUTS
100
AcDbCircle
10
-40.502042295229117
20
46.614503207707116
30
0
40
0.99999999999999822
210
0
220
-0
230
1
100
AcDbArc
50
76.000100186896063
51
166.00010018689736
0
LINE
5
12A
100
AcDbEntity
8
CUTOUTS
100
AcDbLine
10
-41.472338444526144
20
46.856423406655821
30
0
11
-41.56429223767784
21
46.487614138987894
31
0
0
ARC
5
12B
100
AcDbEntity
8
CUTOUTS
100
AcDbCircle
10
-42.534588386974974
20
46.72953433793667
30
0
40
1.0000000000001086
210
0
220
0
230
1
100
AcDbArc
50
256.00437666746194
51
346.00010018689454
0
LINE
5
12C
100
AcDbEntity
8
CUTOUTS
100
AcDbLine
10
-42.77643616363946
20
45.759220134741305
30
0
11
-63.34394101475219
21
50.885606312947935
31
0
0
ARC
5
12D
100
AcDbEntity
8
CUTOUTS
100
AcDbCircle
10
-64.553179898075001
20
46.034035296969478
30
0
40
5.0000000000022062
210
0
220
-0
230
1
100
AcDbArc
50
76.004376667462239
51
89.999999999995936
0
LINE
5
12E
100
AcDbEntity
8
CUTOUTS
100
AcDbLine
10
-64.55317989807466
20
51.034035296971695
30
0
11
-99.221685632575841
21
51.03403529697168
31
0
0
ARC
5
12F
100
AcDbEntity
8
CUTOUTS
100
AcDbCircle
10
-99.221685632575841
20
52.034035296971659
30
0
40
0.99999999999997868
210
0
220
0
230
1
100
AcDbArc
50
180
51
270
0
LINE
5
130
100
AcDbEntity
8
CUTOUTS
100
AcDbLine
10
-100.22168563257581
20
52.034035296971659
30
0
11
-100.22168563257581
21
70.084035296971692
31
0
0
ARC
5
131
100
AcDbEntity
8
CUTOUTS
100
AcDbCircle
10
-99.221685632575827
20
70.084035296971692
30
0
40
0.99999999999999645
210
0
220
-0
230
1
100
AcDbArc
50
90
51
180
0
LINE
5
132
100
AcDbEntity
8
CUTOUTS
100
AcDbLine
10
-99.221685632575827
20
71.084035296971692
30
0
11
-62.208858952911577
21
71.084035296971692
31
0
0
ARC
5
133
100
AcDbEntity
8
CUTOUTS
100
AcDbCircle
10
-62.20885895291147
20
65.084035296971734
30
0
40
5.9999999999999627
210
0
220
-0
230
1
100
AcDbArc
50
76.000100186895608
51
90.000000000001094
0
LINE
5
134
100
AcDbEntity
8
CUTOUTS
100
AcDbLine
10
-60.757337759219077
20
70.905812192753757
30
0
11
-38.896249168871151
21
65.45527123693924
31
0
0
LINE
5
135
100
AcDbEntity
8
CUTOUTS
100
AcDbLine
10
-142.08438563257585
20
-9.6031647030283374
30
0
11
-129.79693563257584
21
-9.6031647030283374
31
0
0
ARC
5
136
100
AcDbEntity
8
CUTOUTS
100
AcDbCircle
10
-129.79693563257584
20
-8.6031647030283409
30
0
40
0.99999999999999645
210
-0
220
0
230
1
100
AcDbArc
50
-90
51
0
0
LINE
5
137
100
AcDbEntity
8
CUTOUTS
100
AcDbLine
10
-128.79693563257584
20
-8.6031647030283409
30
0
11
-128.79693563257584
21
8.4468352969716776
31
0
0
ARC
5
138
100
AcDbEntity
8
CUTOUTS
100
AcDbCircle
10
-127.79693563257584
20
8.4468352969716776
30
0
40
0.99999999999999645
210
0
220
-0
230
1
100
AcDbArc
50
90
51
180
0
LINE
5
139
100
AcDbEntity
8
CUTOUTS
100
AcDbLine
10
-127.79693563257584
20
9.446835296971674
30
0
11
-119.27068563257585
21
9.446835296971674
31
0
0
LINE
5
13A
100
AcDbEntity
8
CUTOUTS
100
AcDbLine
10
-119.27068563257585
20
9.446835296971674
30
0
11
-119.27068563257585
21
27.497035296971681
31
0
0
ARC
5
13B
100
AcDbEntity
8
CUTOUTS
100
AcDbCircle
10
-118.27068563257585
20
27.497035296971681
30
0
40
0.99999999999999645
210
0
220
-0
230
1
100
AcDbArc
50
90
51
180
0
LINE
5
13C
100
AcDbEntity
8
CUTOUTS
100
AcDbLine
10
-118.27068563257585
20
28.497035296971678
30
0
11
-105.98468563257583
21
28.497035296971678
31
0
0
ARC
5
13D
100
AcDbEntity
8
CUTOUTS
100
AcDbCircle
10
-105.98468563257583
20
29.497035296971674
30
0
40
0.99999999999999645
210
-0
220
0
230
1
100
AcDbArc
50
-90
51
0
0
LINE
5
13E
100
AcDbEntity
8
CUTOUTS
100
AcDbLine
10
-104.98468563257583
20
29.497035296971674
30
0
11
-104.98468563257583
21
46.272035296971694
31
0
0
ARC
5
13F
100
AcDbEntity
8
CUTOUTS
100
AcDbCircle
10
-103.98468563257586
20
46.272035296971694
30
0
40
0.99999999999997868
210
0
220
-0
230
1
100
AcDbArc
50
90
51
180
0
LINE
5
140
100
AcDbEntity
8
CUTOUTS
100
AcDbLine
10
-103.98468563257586
20
47.272035296971673
30
0
11
-65.015442847052327
21
47.272035296971673
31
0
0
ARC
5
141
100
AcDbEntity
8
CUTOUTS
100
AcDbCircle
10
-65.015442847052498
20
42.272035296970927
30
0
40
5.0000000000007478
210
0
220
-0
230
1
100
AcDbArc
50
76.000100186896574
51
89.999999999997883
0
LINE
5
142
100
AcDbEntity
8
CUTOUTS
100
AcDbLine
10
-63.805841852308731
20
47.123516043456718
30
0
11
-44.172147984575005
21
42.228322828455696
31
0
0
ARC
5
143
100
AcDbEntity
8
CUTOUTS
100
AcDbCircle
10
-43.930227785626279
20
43.198618977752744
30
0
40
1.0000000000000324
210
0
220
0
230
1
100
AcDbArc
50
256.00010018689653
51
345.99903388873446
0
LINE
5
144
100
AcDbEntity
8
CUTOUTS
100
AcDbLine
10
-42.959936138732253
20
42.956680721233127
30
0
11
-42.867618480365088
21
43.326920029654531
31
0
0
ARC
5
145
100
AcDbEntity
8
CUTOUTS
100
AcDbCircle
10
-41.897326833471134
20
43.084981773135041
30
0
40
0.99999999999993661
210
0
220
-0
230
1
100
AcDbArc
50
75.999033888732257
51
165.99903388874057
0
LINE
5
146
100
AcDbEntity
8
CUTOUTS
100
AcDbLine
10
-41.655388576951502
20
44.055273420028968
30
0
11
-25.11127928263722
21
39.930067384143882
31
0
0
ARC
5
147
100
AcDbEntity
8
CUTOUTS
100
AcDbCircle
10
-25.353217539156852
20
38.959775737249899
30
0
40
1.0000000000000024
210
-0
220
0
230
1
100
AcDbArc
50
-13.999899813100996
51
75.999033888733052
0
LINE
5
148
100
AcDbEntity
8
CUTOUTS
100
AcDbLine
10
-24.382921389859824
20
38.717855538301222
30
0
11
-24.475057865620187
21
38.348313565251487
31
0
0
ARC
5
149
100
AcDbEntity
8
CUTOUTS
100
AcDbCircle
10
-23.504761716323124
20
38.106393366302846
30
0
40
1.0000000000000284
210
0
220
0
230
1
100
AcDbArc
50
166.00010018690153
51
255.99903388873361
0
LINE
5
14A
100
AcDbEntity
8
CUTOUTS
100
AcDbLine
10
-23.746699972842755
20
37.136101719408821
30
0
11
-7.2032656065875145
21
33.011063974076777
31
0
0
ARC
5
14B
100
AcDbEntity
8
CUTOUTS
100
AcDbCircle
10
-7.4452038631070394
20
32.0407723271828
30
0
40
0.9999999999999355
210
-0
220
0
230
1
100
AcDbArc
50
-14.000219685837582
51
75.999033888738879
0
LINE
5
14C
100
AcDbEntity
8
CUTOUTS
100
AcDbLine
10
-6.4749090644251339
20
31.79884671123709
30
0
11
-6.5670540191856119
21
31.429279520183933
31
0
0
ARC
5
14D
100
AcDbEntity
8
CUTOUTS
100
AcDbCircle
10
-5.596759220503742
20
31.187353904238169
30
0
40
0.99999999999991385
210
0
220
0
230
1
100
AcDbArc
50
165.99978031415893
51
256.00010018689903
0
LINE
5
14E
100
AcDbEntity
8
CUTOUTS
100
AcDbLine
10
-5.8386794194523972
20
30.21705775494123
30
0
11
11.189927498546126
21
25.971380827947073
31
0
0
ARC
5
14F
100
AcDbEntity
8
CUTOUTS
100
AcDbCircle
10
10.948007547205592
20
25.001085671759462
30
0
40
0.99999999999993006
210
-0
220
0
230
1
100
AcDbArc
50
-14.000113060003081
51
76.000100186899033
0
LINE
5
150
100
AcDbEntity
8
CUTOUTS
100
AcDbLine
10
11.91830279610258
20
24.759161861505508
30
0
11
-1.4237926838955417
21
-28.75261046459908
31
0
0
ARC
5
151
100
AcDbEntity
8
CUTOUTS
100
AcDbCircle
10
-0.45349717941505219
20
-28.994534338577669
30
0
40
1.0000002634078935
210
0
220
0
230
1
100
AcDbArc
50
165.99988693999833
51
256.00010018689693
0
LINE
5
152
100
AcDbEntity
8
CUTOUTS
100
AcDbLine
10
-0.69541744208745371
20
-29.96483074345835
30
0
11
15.847950972316518
21
-34.08952502467767
31
0
0
ARC
5
153
100
AcDbEntity
8
CUTOUTS
100
AcDbCircle
10
15.606030773367792
20
-35.059821173974683
30
0
40
0.99999999999999689
210
-0
220
0
230
1
100
AcDbArc
50
-14.000113060001503
51
76.000100186896162
0
LINE
5
154
100
AcDbEntity
8
CUTOUTS
100
AcDbLine
10
16.576326022264851
20
-35.301744984228627
30
0
11
7.6009248460699652
21
-71.299810280345497
31
0
0
ARC
5
155
100
AcDbEntity
8
CUTOUTS
100
AcDbCircle
10
6.6306295971729412
20
-71.057886470091574
30
0
40
0.9999999999999809
210
0
220
0
230
1
100
AcDbArc
50
256.00010018689369
51
345.9998869399995
0
LINE
5
156
100
AcDbEntity
8
CUTOUTS
100
AcDbLine
10
6.3887093982241794
20
-72.028182619388559
30
0
11
-29.609388500152534
21
-63.052915623162562
31
0
0
ARC
5
157
100
AcDbEntity
8
CUTOUTS
100
AcDbCircle
10
-29.367468495599027
20
-62.082620253547731
30
0
40
1.0000000000000551
210
0
220
0
230
1
100
AcDbArc
50
165.99999356424152
51
256.00010018689972
0
LINE
5
158
100
AcDbEntity
8
CUTOUTS
100
AcDbLine
10
-30.337764194701151
20
-61.840698248959413
30
0
11
-30.245453697004514
21
-61.470461241997363
31
0
0
ARC
5
159
100
AcDbEntity
8
CUTOUTS
100
AcDbCircle
10
-31.215749396106673
20
-61.228539237409066
30
0
40
1.000000000000083
210
-0
220
0
230
1
100
AcDbArc
50
-14.000006435756822
51
76.000527827791885
0
LINE
5
15A
100
AcDbEntity
8
CUTOUTS
100
AcDbLine
10
-30.973836439204447
20
-60.25824128250914
30
0
11
-75.243851990004117
21
-49.220919901051232
31
0
0
ARC
5
15B
100
AcDbEntity
8
CUTOUTS
100
AcDbCircle
10
-75.001939653441127
20
-48.250624434293883
30
0
40
0.99999743569232202
210
0
220
0
230
1
100
AcDbArc
50
165.99999356424394
51
256.00052782778982
0
LINE
5
15C
100
AcDbEntity
8
CUTOUTS
100
AcDbLine
10
-75.972232864406507
20
-48.008703050068071
30
0
11
-71.847405513228267
21
-31.464932072317112
31
0
0
ARC
5
15D
100
AcDbEntity
8
CUTOUTS
100
AcDbCircle
10
-72.817701212330377
20
-31.223010067728829
30
0
40
1.0000000000000293
210
-0
220
0
230
1
100
AcDbArc
50
-14.000006435756772
51
75.999033888735212
0
LINE
5
15E
100
AcDbEntity
8
CUTOUTS
100
AcDbLine
10
-72.575762955810774
20
-30.252718420834803
30
0
11
-79.550716504316028
21
-28.513544413996151
31
0
0
ARC
5
15F
100
AcDbEntity
8
CUTOUTS
100
AcDbCircle
10
-79.671685632575816
20
-28.998690237443157
30
0
40
0.50000000000000711
210
0
220
-0
230
1
100
AcDbArc
50
75.999033888736591
51
180
0
LINE
5
160
100
AcDbEntity
8
CUTOUTS
100
AcDbLine
10
-80.17168563257583
20
-28.998690237443157
30
0
11
-80.17168563257583
21
-29.428064703028323
31
0
0
ARC
5
161
100
AcDbEntity
8
CUTOUTS
100
AcDbCircle
10
-80.67168563257583
20
-29.428064703028348
30
0
40
0.49999999999998934
210
0
220
0
230
1
100
AcDbArc
50
-90.000000000001634
51
0
0
LINE
5
162
100
AcDbEntity
8
CUTOUTS
100
AcDbLine
10
-80.671685632575844
20
-29.92806470302834
30
0
11
-83.934435632575827
21
-29.92806470302834
31
0
0
ARC
5
163
100
AcDbEntity
8
CUTOUTS
100
AcDbCircle
10
-83.934435632575827
20
-30.928064703028333
30
0
40
0.99999999999999645
210
0
220
-0
230
1
100
AcDbArc
50
90
51
180
0
LINE
5
164
100
AcDbEntity
8
CUTOUTS
100
AcDbLine
10
-84.934435632575827
20
-30.928064703028333
30
0
11
-84.934435632575827
21
-47.978064703028345
31
0
0
ARC
5
165
100
AcDbEntity
8
CUTOUTS
100
AcDbCircle
10
-85.934435632575813
20
-47.978064703028323
30
0
40
0.99999999999999645
210
-0
220
0
230
1
100
AcDbArc
50
270
51
360
0
LINE
5
166
100
AcDbEntity
8
CUTOUTS
100
AcDbLine
10
-85.934435632575813
20
-48.97806470302833
30
0
11
-132.55993563257584
21
-48.978064703028338
31
0
0
ARC
5
167
100
AcDbEntity
8
CUTOUTS
100
AcDbCircle
10
-132.55993563257584
20
-47.978064703028345
30
0
40
0.99999999999999645
210
0
220
0
230
1
100
AcDbArc
50
180
51
270
0
LINE
5
168
100
AcDbEntity
8
CUTOUTS
100
AcDbLine
10
-133.55993563257582
20
-47.978064703028338
30
0
11
-133.55993563257582
21
-31.203064703028353
31
0
0
ARC
5
169
100
AcDbEntity
8
CUTOUTS
100
AcDbCircle
10
-134.55993563257584
20
-31.203064703028353
30
0
40
1.0000000000000142
210
0
220
-0
230
1
100
AcDbArc
50
0
51
90
0
LINE
5
16A
100
AcDbEntity
8
CUTOUTS
100
AcDbLine
10
-134.55993563257584
20
-30.203064703028339
30
0
11
-142.08438563257585
21
-30.203064703028346
31
0
0
ARC
5
16B
100
AcDbEntity
8
CUTOUTS
100
AcDbCircle
10
-142.08438563257585
20
-29.203064703028367
30
0
40
0.99999999999999645
210
0
220
0
230
1
100
AcDbArc
50
180
51
270
0
LINE
5
16C
100
AcDbEntity
8
CUTOUTS
100
AcDbLine
10
-143.08438563257585
20
-29.203064703028339
30
0
11
-143.08438563257582
21
-10.603164703028334
31
0
0
ARC
5
16D
100
AcDbEntity
8
CUTOUTS
100
AcDbCircle
10
-142.08438563257585
20
-10.603164703028307
30
0
40
0.9999999999999698
210
0
220
-0
230
1
100
AcDbArc
50
90
51
180
0
LINE
5
16E
100
AcDbEntity
8
CUTOUTS
100
AcDbLine
10
-108.74668563257585
20
70.084035296971692
30
0
11
-108.74668563257585
21
52.034035296971659
31
0
0
ARC
5
16F
100
AcDbEntity
8
CUTOUTS
100
AcDbCircle
10
-109.74668563257582
20
52.034035296971659
30
0
40
0.99999999999997868
210
-0
220
0
230
1
100
AcDbArc
50
-90
51
0
0
LINE
5
170
100
AcDbEntity
8
CUTOUTS
100
AcDbLine
10
-109.74668563257582
20
51.03403529697168
30
0
11
-127.79668563257586
21
51.03403529697168
31
0
0
ARC
5
171
100
AcDbEntity
8
CUTOUTS
100
AcDbCircle
10
-127.79668563257586
20
52.034035296971659
30
0
40
0.99999999999997868
210
0
220
0
230
1
100
AcDbArc
50
180
51
270
0
LINE
5
172
100
AcDbEntity
8
CUTOUTS
100
AcDbLine
10
-128.79668563257584
20
52.034035296971659
30
0
11
-128.79668563257584
21
70.084035296971692
31
0
0
ARC
5
173
100
AcDbEntity
8
CUTOUTS
100
AcDbCircle
10
-127.79668563257584
20
70.084035296971692
30
0
40
0.99999999999999645
210
0
220
-0
230
1
100
AcDbArc
50
90
51
180
0
LINE
5
174
100
AcDbEntity
8
CUTOUTS
100
AcDbLine
10
-127.79668563257584
20
71.084035296971692
30
0
11
-109.74668563257583
21
71.084035296971692
31
0
0
ARC
5
175
100
AcDbEntity
8
CUTOUTS
100
AcDbCircle
10
-109.74668563257583
20
70.084035296971692
30
0
40
0.99999999999999645
210
0
220
-0
230
1
100
AcDbArc
50
0
51
90
0
ARC
5
176
100
AcDbEntity
8
CUTOUTS
100
AcDbCircle
10
60.703202071604565
20
61.090382771213939
30
0
40
0.99999069479310831
210
-0
220
0
230
1
100
AcDbArc
50
-76.000093202668452
51
14.000973095496519
0
LINE
5
177
100
AcDbEntity
8
CUTOUTS
100
AcDbLine
10
61.673484660242543
20
61.332318894723358
30
0
11
61.581044286077642
21
61.703088622527972
31
0
0
ARC
5
178
100
AcDbEntity
8
CUTOUTS
100
AcDbCircle
10
62.551330937659522
20
61.945025759116348
30
0
40
0.99999488213618615
210
0
220
0
230
1
100
AcDbArc
50
103.99990679732959
51
194.00097309549534
0
LINE
5
179
100
AcDbEntity
8
CUTOUTS
100
AcDbLine
10
62.309411858549133
20
62.915316913080432
30
0
11
79.823197373402792
21
67.281963817137211
31
0
0
ARC
5
17A
100
AcDbEntity
8
CUTOUTS
100
AcDbCircle
10
80.065117690628512
20
66.311667697329796
30
0
40
0.99999999999996603
210
0
220
-0
230
1
100
AcDbArc
50
13.999906797330604
51
103.99990679733556
0
LINE
5
17B
100
AcDbEntity
8
CUTOUTS
100
AcDbLine
10
81.035413810435955
20
66.55358801455543
30
0
11
81.12764797339814
21
66.183654428727593
31
0
0
ARC
5
17C
100
AcDbEntity
8
CUTOUTS
100
AcDbCircle
10
82.097944093205584
20
66.42557474595327
30
0
40
0.99999999999997469
210
0
220
0
230
1
100
AcDbArc
50
193.99990679733293
51
283.99990679733298
0
LINE
5
17D
100
AcDbEntity
8
CUTOUTS
100
AcDbLine
10
82.339864410431261
20
65.455278626145827
30
0
11
104.20095233637025
21
70.905822246778484
31
0
0
ARC
5
17E
100
AcDbEntity
8
CUTOUTS
100
AcDbCircle
10
105.65247423972426
20
65.084045527933597
30
0
40
6.0000000000000586
210
0
220
0
230
1
100
AcDbArc
50
90.000006984227213
51
103.9999067973318
0
LINE
5
17F
100
AcDbEntity
8
CUTOUTS
100
AcDbLine
10
105.65247350833769
20
71.084045527933611
30
0
11
142.66530018800165
21
71.084050039715038
31
0
0
LINE
5
180
100
AcDbEntity
8
CUTOUTS
100
AcDbLine
10
142.66530018800165
20
71.084050039715038
30
0
11
223.62831435084988
21
71.084051381603587
31
0
0
ARC
5
181
100
AcDbEntity
8
CUTOUTS
100
AcDbCircle
10
223.62831436742422
20
70.084051381603572
30
0
40
0.99999999999994316
210
-0
220
0
230
1
100
AcDbArc
50
0
51
90.000000949640153
0
LINE
5
182
100
AcDbEntity
8
CUTOUTS
100
AcDbLine
10
224.62831436742417
20
70.084051381603544
30
0
11
224.62831436742422
21
52.034050039714899
31
0
0
ARC
5
183
100
AcDbEntity
8
CUTOUTS
100
AcDbCircle
10
223.62831436742428
20
52.034050039714884
30
0
40
0.99999999999999645
210
0
220
0
230
1
100
AcDbArc
50
-90.000000000003254
51
0
0
LINE
5
184
100
AcDbEntity
8
CUTOUTS
100
AcDbLine
10
223.62831436742422
20
51.034050039714884
30
0
11
142.66530263205215
21
51.034050039715183
31
0
0
LINE
5
185
100
AcDbEntity
8
CUTOUTS
100
AcDbLine
10
142.66530263205215
20
51.034050039715183
30
0
11
107.99679689755121
21
51.034045813701297
31
0
0
ARC
5
186
100
AcDbEntity
8
CUTOUTS
100
AcDbCircle
10
107.99679750704047
20
46.034045813699137
30
0
40
5.0000000000022036
210
0
220
0
230
1
100
AcDbArc
50
90.000006984232485
51
103.99563031676654
0
LINE
5
187
100
AcDbEntity
8
CUTOUTS
100
AcDbLine
10
106.7875580323219
20
50.885616682274005
30
0
11
86.220053806104431
21
45.759227996934214
31
0
0
ARC
5
188
100
AcDbEntity
8
CUTOUTS
100
AcDbCircle
10
85.978205911160757
20
46.729542170648784
30
0
40
1.0000000000000695
210
0
220
0
230
1
100
AcDbArc
50
193.999906797329
51
283.99563031676951
0
LINE
5
189
100
AcDbEntity
8
CUTOUTS
100
AcDbLine
10
85.0079097913532
20
46.48762185342315
30
0
11
84.915955953244435
21
46.856431109882109
31
0
0
ARC
5
18A
100
AcDbEntity
8
CUTOUTS
100
AcDbCircle
10
83.945659833437034
20
46.614510792656475
30
0
40
0.99999999999993161
210
0
220
-0
230
1
100
AcDbArc
50
13.999906797331183
51
103.99990679733358
0
LINE
5
18B
100
AcDbEntity
8
CUTOUTS
100
AcDbLine
10
83.703739516211357
20
47.58480691246389
30
0
11
68.130446200738504
21
43.701975700199526
31
0
0
ARC
5
18C
100
AcDbEntity
8
CUTOUTS
100
AcDbCircle
10
68.372366517964139
20
42.731679580392417
30
0
40
0.99999999999963851
210
0
220
0
230
1
100
AcDbArc
50
103.99990679733524
51
193.99990679733136
0
LINE
5
18D
100
AcDbEntity
8
CUTOUTS
100
AcDbLine
10
67.402070398157036
20
42.489759263166853
30
0
11
67.494283681783287
21
42.119909420361395
31
0
0
ARC
5
18E
100
AcDbEntity
8
CUTOUTS
100
AcDbCircle
10
66.523987561975815
20
41.877989103135711
30
0
40
1.0000000000000004
210
-0
220
0
230
1
100
AcDbArc
50
-76.00009320266652
51
13.999906797333155
0
LINE
5
18F
100
AcDbEntity
8
CUTOUTS
100
AcDbLine
10
66.765907879201507
20
40.907692983328246
30
0
11
50.222447044149767
21
36.782973517254177
31
0
0
ARC
5
190
100
AcDbEntity
8
CUTOUTS
100
AcDbCircle
10
50.464367361375473
20
35.812677397446663
30
0
40
1.0000000000000522
210
0
220
0
230
1
100
AcDbArc
50
103.99990679733358
51
193.99990679733273
0
LINE
5
191
100
AcDbEntity
8
CUTOUTS
100
AcDbLine
10
49.494071241567958
20
35.570757080220972
30
0
11
49.586214628289262
21
35.201187580532022
31
0
0
ARC
5
192
100
AcDbEntity
8
CUTOUTS
100
AcDbCircle
10
48.615918508481784
20
34.959267263306373
30
0
40
0.99999999999998446
210
-0
220
0
230
1
100
AcDbArc
50
-75.999026904503665
51
13.999906797331183
0
LINE
5
193
100
AcDbEntity
8
CUTOUTS
100
AcDbLine
10
48.857856883277826
20
33.988975645904148
30
0
11
31.343078866262317
21
29.621735063434507
31
0
0
ARC
5
194
100
AcDbEntity
8
CUTOUTS
100
AcDbCircle
10
31.10114049146631
20
30.592026680836799
30
0
40
1.0000000000000344
210
0
220
0
230
1
100
AcDbArc
50
193.9956303167674
51
284.00097309549346
0
LINE
5
195
100
AcDbEntity
8
CUTOUTS
100
AcDbLine
10
30.130826317751733
20
30.350178785893167
30
0
11
25.765487856208118
21
47.864285258823628
31
0
0
ARC
5
196
100
AcDbEntity
8
CUTOUTS
100
AcDbCircle
10
26.735802029922624
20
48.106133153767274
30
0
40
0.99999999999994027
210
0
220
0
230
1
100
AcDbArc
50
103.99990679732883
51
193.99563031676928
0
LINE
5
197
100
AcDbEntity
8
CUTOUTS
100
AcDbLine
10
26.493881712697025
20
49.076429273574703
30
0
11
43.037159692968778
21
53.201103149147698
31
0
0
ARC
5
198
100
AcDbEntity
8
CUTOUTS
100
AcDbCircle
10
42.795239375743144
20
54.17139926895517
30
0
40
1.0000000000000004
210
-0
220
0
230
1
100
AcDbArc
50
-76.000093202669774
51
13.999906797331288
0
LINE
5
199
100
AcDbEntity
8
CUTOUTS
100
AcDbLine
10
43.765535495550623
20
54.413319586180826
30
0
11
43.673322211924379
21
54.783169428985886
31
0
0
ARC
5
19A
100
AcDbEntity
8
CUTOUTS
100
AcDbCircle
10
44.643618331731929
20
55.025089746211492
30
0
40
1.0000000000000608
210
0
220
0
230
1
100
AcDbArc
50
103.99990679733556
51
193.99990679732755
0
LINE
5
19B
100
AcDbEntity
8
CUTOUTS
100
AcDbLine
10
44.401698014506188
20
55.995385866019006
30
0
11
60.945120137711619
21
60.120095680212614
31
0
0
LINE
5
19C
100
AcDbEntity
8
CUTOUTS
100
AcDbLine
10
206.57831436742416
20
-28.928064703028333
30
0
11
223.62831436742422
21
-28.928064703028333
31
0
0
ARC
5
19D
100
AcDbEntity
8
CUTOUTS
100
AcDbCircle
10
223.62831436742422
20
-29.92806470302833
30
0
40
1.0000000000000142
210
-0
220
0
230
1
100
AcDbArc
50
0
51
90
0
LINE
5
19E
100
AcDbEntity
8
CUTOUTS
100
AcDbLine
10
224.62831436742422
20
-29.928064703028348
30
0
11
224.62831436742422
21
-47.978064703028394
31
0
0
ARC
5
19F
100
AcDbEntity
8
CUTOUTS
100
AcDbCircle
10
223.62831436742428
20
-47.978064703028394
30
0
40
0.99999999999994316
210
-0
220
0
230
1
100
AcDbArc
50
-90
51
0
0
LINE
5
1A0
100
AcDbEntity
8
CUTOUTS
100
AcDbLine
10
223.62831436742428
20
-48.978064703028338
30
0
11
119.85306436742431
21
-48.978064703028323
31
0
0
ARC
5
1A1
100
AcDbEntity
8
CUTOUTS
100
AcDbCircle
10
119.85306436742437
20
-47.978064703028203
30
0
40
1.0000000000001563
210
0
220
0
230
1
100
AcDbArc
50
180
51
269.99999999999511
0
LINE
5
1A2
100
AcDbEntity
8
CUTOUTS
100
AcDbLine
10
118.85306436742422
20
-47.978064703028238
30
0
11
118.85306436742422
21
-30.826055326781944
31
0
0
ARC
5
1A3
100
AcDbEntity
8
CUTOUTS
100
AcDbCircle
10
117.8530643674242
20
-30.826055326781947
30
0
40
1.0000000000000142
210
0
220
-0
230
1
100
AcDbArc
50
0
51
103.99989981310168
0
LINE
5
1A4
100
AcDbEntity
8
CUTOUTS
100
AcDbLine
10
117.61114416847551
20
-29.855759177484913
30
0
11
106.77641352730819
21
-32.557140806347391
31
0
0
ARC
5
1A5
100
AcDbEntity
8
CUTOUTS
100
AcDbCircle
10
107.01833383858099
20
-33.527437406154974
30
0
40
1.0000004643021274
210
0
220
0
230
1
100
AcDbArc
50
103.99989981310408
51
194.0001130599988
0
LINE
5
1A6
100
AcDbEntity
8
CUTOUTS
100
AcDbLine
10
106.04803813917374
20
-33.769361328734611
30
0
11
110.17284372779432
21
-50.312911948077392
31
0
0
ARC
5
1A7
100
AcDbEntity
8
CUTOUTS
100
AcDbCircle
10
109.20254847889734
20
-50.554835758331407
30
0
40
0.99999999999994649
210
-0
220
0
230
1
100
AcDbArc
50
-76.000100186902358
51
14.00011306000664
0
LINE
5
1A8
100
AcDbEntity
8
CUTOUTS
100
AcDbLine
10
109.44446867784595
20
-51.525131907628392
30
0
11
88.280075688914394
21
-56.801968434518351
31
0
0
ARC
5
1A9
100
AcDbEntity
8
CUTOUTS
100
AcDbCircle
10
88.52199473768917
20
-57.772259970685411
30
0
40
0.99999524564746645
210
0
220
0
230
1
100
AcDbArc
50
103.99989981310159
51
194.0001130600009
0
LINE
5
1AA
100
AcDbEntity
8
CUTOUTS
100
AcDbLine
10
87.551704101917778
20
-58.01418263074828
30
0
11
87.643949960971412
21
-58.384177105573741
31
0
0
ARC
5
1AB
100
AcDbEntity
8
CUTOUTS
100
AcDbCircle
10
86.673654712074296
20
-58.626100915827656
30
0
40
1.0000000000000413
210
-0
220
0
230
1
100
AcDbArc
50
-76.000100186892794
51
14.00011305999854
0
LINE
5
1AC
100
AcDbEntity
8
CUTOUTS
100
AcDbLine
10
86.915574911023086
20
-59.596397065124691
30
0
11
37.054868821149611
21
-72.027975783886461
31
0
0
ARC
5
1AD
100
AcDbEntity
8
CUTOUTS
100
AcDbCircle
10
36.812948374592729
20
-71.057678641480024
30
0
40
1.0000010235116519
210
0
220
0
230
1
100
AcDbArc
50
194.00011306000255
51
283.99989981310455
0
LINE
5
1AE
100
AcDbEntity
8
CUTOUTS
100
AcDbLine
10
35.842652132587176
20
-71.299602699345826
30
0
11
26.867302464970777
21
-35.301743991116425
31
0
0
ARC
5
1AF
100
AcDbEntity
8
CUTOUTS
100
AcDbCircle
10
27.837596720759308
20
-35.059820428474275
30
0
40
0.99999897648831482
210
0
220
0
230
1
100
AcDbArc
50
103.99989981310154
51
194.00011306000454
0
LINE
5
1B0
100
AcDbEntity
8
CUTOUTS
100
AcDbLine
10
27.595676769418773
20
-34.0895252722867
30
0
11
44.139046432516729
21
-29.964830679735329
31
0
0
ARC
5
1B1
100
AcDbEntity
8
CUTOUTS
100
AcDbCircle
10
43.897125985958994
20
-28.994533537325253
30
0
40
1.0000010235154038
210
-0
220
0
230
1
100
AcDbArc
50
-76.00010018689845
51
14.000113060001826
0
LINE
5
1B2
100
AcDbEntity
8
CUTOUTS
100
AcDbLine
10
44.86742222796817
20
-28.75260947945856
30
0
11
31.525326186357638
21
24.759160868397014
31
0
0
ARC
5
1B3
100
AcDbEntity
8
CUTOUTS
100
AcDbCircle
10
32.495621435254662
20
25.001084678650969
30
0
40
0.99999999999998956
210
0
220
0
230
1
100
AcDbArc
50
103.999899813102
51
194.00011306000278
0
LINE
5
1B4
100
AcDbEntity
8
CUTOUTS
100
AcDbLine
10
32.253701236305972
20
25.971380827947979
30
0
11
49.28228957880723
21
30.217053123585114
31
0
0
ARC
5
1B5
100
AcDbEntity
8
CUTOUTS
100
AcDbCircle
10
49.040369379858504
20
31.187349272882088
30
0
40
0.9999999999999637
210
-0
220
0
230
1
100
AcDbArc
50
-76.000100186895537
51
14.000006435755134
0
LINE
5
1B6
100
AcDbEntity
8
CUTOUTS
100
AcDbLine
10
50.010665078960557
20
31.429271277470328
30
0
11
49.918452052551778
21
31.799117348636621
31
0
0
ARC
5
1B7
100
AcDbEntity
8
CUTOUTS
100
AcDbCircle
10
50.888747751653831
20
32.041039353224896
30
0
40
0.99999999999998956
210
0
220
0
230
1
100
AcDbArc
50
103.99989981310206
51
194.000006435757
0
LINE
5
1B8
100
AcDbEntity
8
CUTOUTS
100
AcDbLine
10
50.64682755270514
20
33.011335502521902
30
0
11
67.190297748948993
21
37.136055160615022
31
0
0
ARC
5
1B9
100
AcDbEntity
8
CUTOUTS
100
AcDbCircle
10
66.948377550000302
20
38.106351309912014
30
0
40
0.99999999999997224
210
-0
220
0
230
1
100
AcDbArc
50
-76.000100186897726
51
13.999899813102155
0
LINE
5
1BA
100
AcDbEntity
8
CUTOUTS
100
AcDbLine
10
67.918673699297301
20
38.348271508860705
30
0
11
67.826460460754959
21
38.718121362906466
31
0
0
ARC
5
1BB
100
AcDbEntity
8
CUTOUTS
100
AcDbCircle
10
68.796756610051943
20
38.960041561855157
30
0
40
0.99999999999999822
210
0
220
0
230
1
100
AcDbArc
50
103.99989981310364
51
193.99989981310236
0
LINE
5
1BC
100
AcDbEntity
8
CUTOUTS
100
AcDbLine
10
68.554836411103224
20
39.930337711152163
30
0
11
85.098297748948994
21
44.055055160615083
31
0
0
ARC
5
1BD
100
AcDbEntity
8
CUTOUTS
100
AcDbCircle
10
85.340217947897685
20
43.084759011317999
30
0
40
1.0000000000000973
210
0
220
-0
230
1
100
AcDbArc
50
13.99989981310552
51
103.99989981310136
0
LINE
5
1BE
100
AcDbEntity
8
CUTOUTS
100
AcDbLine
10
86.310514097194783
20
43.326679210266775
30
0
11
86.402748215062886
21
42.956745613195878
31
0
0
ARC
5
1BF
100
AcDbEntity
8
CUTOUTS
100
AcDbCircle
10
87.373044364359885
20
43.19866581214459
30
0
40
0.99999999999997657
210
0
220
0
230
1
100
AcDbArc
50
193.99989981310333
51
283.99989981310563
0
LINE
5
1C0
100
AcDbEntity
8
CUTOUTS
100
AcDbLine
10
87.614964563308632
20
42.228369662847612
30
0
11
107.18890232439651
21
47.108664118105295
31
0
0
ARC
5
1C1
100
AcDbEntity
8
CUTOUTS
100
AcDbCircle
10
108.51946341861418
20
41.772035296972959
30
0
40
5.4999999999987281
210
0
220
0
230
1
100
AcDbArc
50
90.000000000000895
51
103.99989981310378
0
LINE
5
1C2
100
AcDbEntity
8
CUTOUTS
100
AcDbLine
10
108.51946341861409
20
47.272035296971694
30
0
11
204.57831436742427
21
47.272035296971673
31
0
0
ARC
5
1C3
100
AcDbEntity
8
CUTOUTS
100
AcDbCircle
10
204.57831436742435
20
46.272035296971751
30
0
40
0.9999999999998721
210
-0
220
0
230
1
100
AcDbArc
50
0
51
90.000000000003254
0
LINE
5
1C4
100
AcDbEntity
8
CUTOUTS
100
AcDbLine
10
205.57831436742421
20
46.27203529697173
30
0
11
205.57831436742421
21
28.222035296971626
31
0
0
ARC
5
1C5
100
AcDbEntity
8
CUTOUTS
100
AcDbCircle
10
204.57831436742427
20
28.222035296971626
30
0
40
0.99999999999996092
210
-0
220
0
230
1
100
AcDbArc
50
-90
51
0
0
LINE
5
1C6
100
AcDbEntity
8
CUTOUTS
100
AcDbLine
10
204.57831436742427
20
27.222035296971665
30
0
11
201.81931436742406
21
27.222035296971665
31
0
0
ARC
5
1C7
100
AcDbEntity
8
CUTOUTS
100
AcDbCircle
10
201.81931436742406
20
26.222035296971651
30
0
40
1.0000000000000142
210
0
220
-0
230
1
100
AcDbArc
50
90
51
180
0
LINE
5
1C8
100
AcDbEntity
8
CUTOUTS
100
AcDbLine
10
200.81931436742406
20
26.222035296971651
30
0
11
200.8193143674242
21
-8.8780647030283788
31
0
0
ARC
5
1C9
100
AcDbEntity
8
CUTOUTS
100
AcDbCircle
10
201.81931436742414
20
-8.8780647030283788
30
0
40
0.99999999999994316
210
0
220
0
230
1
100
AcDbArc
50
180
51
270
0
LINE
5
1CA
100
AcDbEntity
8
CUTOUTS
100
AcDbLine
10
201.81931436742414
20
-9.878064703028322
30
0
11
204.57831436742421
21
-9.878064703028322
31
0
0
ARC
5
1CB
100
AcDbEntity
8
CUTOUTS
100
AcDbCircle
10
204.57831436742421
20
-10.878064703028318
30
0
40
1.0000000000000142
210
-0
220
0
230
1
100
AcDbArc
50
0
51
90
0
LINE
5
1CC
100
AcDbEntity
8
CUTOUTS
100
AcDbLine
10
205.57831436742421
20
-10.878064703028336
30
0
11
205.57831436742421
21
-27.92806470302839
31
0
0
ARC
5
1CD
100
AcDbEntity
8
CUTOUTS
100
AcDbCircle
10
206.57831436742416
20
-27.92806470302839
30
0
40
0.99999999999994316
210
0
220
0
230
1
100
AcDbArc
50
180
51
270
0
ARC
5
1CE
100
AcDbEntity
8
CUTOUTS
100
AcDbCircle
10
-147.84718563257582
20
-47.978064703028338
30
0
40
0.99999999999999645
210
-0
220
0
230
1
100
AcDbArc
50
-90
51
0
0
LINE
5
1CF
100
AcDbEntity
8
CUTOUTS
100
AcDbLine
10
-146.84718563257582
20
46.27203529697168
30
0
11
-146.84718563257582
21
-47.978064703028323
31
0
0
ARC
5
1D0
100
AcDbEntity
8
CUTOUTS
100
AcDbCircle
10
-147.84718563257582
20
46.27203529697168
30
0
40
0.99999999999999645
210
0
220
-0
230
1
100
AcDbArc
50
0
51
90
0
LINE
5
1D1
100
AcDbEntity
8
CUTOUTS
100
AcDbLine
10
-223.04718563257583
20
47.272035296971673
30
0
11
-147.84718563257582
21
47.272035296971673
31
0
0
ARC
5
1D2
100
AcDbEntity
8
CUTOUTS
100
AcDbCircle
10
-223.04718563257583
20
46.27203529697168
30
0
40
0.99999999999999645
210
0
220
-0
230
1
100
AcDbArc
50
90
51
180
0
LINE
5
1D3
100
AcDbEntity
8
CUTOUTS
100
AcDbLine
10
-224.04718563257586
20
-47.978064703028323
30
0
11
-224.04718563257586
21
46.27203529697168
31
0
0
ARC
5
1D4
100
AcDbEntity
8
CUTOUTS
100
AcDbCircle
10
-223.04718563257583
20
-47.978064703028323
30
0
40
1.0000000000000142
210
0
220
0
230
1
100
AcDbArc
50
180
51
270
0
LINE
5
1D5
100
AcDbEntity
8
CUTOUTS
100
AcDbLine
10
-147.84718563257582
20
-48.97806470302833
30
0
11
-223.04718563257583
21
-48.978064703028338
31
0
0
ARC
5
1D6
100
AcDbEntity
8
CUTOUTS
100
AcDbCircle
10
-147.84718563257582
20
52.03403529697168
30
0
40
0.99999999999999645
210
-0
220
0
230
1
100
AcDbArc
50
-90
51
0
0
LINE
5
1D7
100
AcDbEntity
8
CUTOUTS
100
AcDbLine
10
-146.84718563257582
20
70.084035296971692
30
0
11
-146.84718563257582
21
52.03403529697168
31
0
0
ARC
5
1D8
100
AcDbEntity
8
CUTOUTS
100
AcDbCircle
10
-147.84718563257582
20
70.084035296971692
30
0
40
0.99999999999999645
210
0
220
-0
230
1
100
AcDbArc
50
0
51
90
0
LINE
5
1D9
100
AcDbEntity
8
CUTOUTS
100
AcDbLine
10
-223.04718563257583
20
71.084035296971692
30
0
11
-147.84718563257584
21
71.084035296971692
31
0
0
ARC
5
1DA
100
AcDbEntity
8
CUTOUTS
100
AcDbCircle
10
-223.04718563257583
20
70.084035296971692
30
0
40
0.99999999999999645
210
0
220
-0
230
1
100
AcDbArc
50
90
51
180
0
LINE
5
1DB
100
AcDbEntity
8
CUTOUTS
100
AcDbLine
10
-224.04718563257586
20
52.03403529697168
30
0
11
-224.04718563257586
21
70.084035296971678
31
0
0
ARC
5
1DC
100
AcDbEntity
8
CUTOUTS
100
AcDbCircle
10
-223.04718563257583
20
52.034035296971659
30
0
40
0.99999999999997868
210
0
220
0
230
1
100
AcDbArc
50
180
51
270
0
LINE
5
1DD
100
AcDbEntity
8
CUTOUTS
100
AcDbLine
10
-147.84718563257582
20
51.03403529697168
30
0
11
-223.04718563257583
21
51.03403529697168
31
0
0
LINE
5
1DE
100
AcDbEntity
8
PERIMETER
100
AcDbLine
10
-218.54746449397314
20
-60.05939590288898
30
0
11
-88.563748279452625
21
-60.055531731182811
31
0
0
ARC
5
1DF
100
AcDbEntity
8
PERIMETER
100
AcDbCircle
10
-88.563303298224753
20
-75.023891848711742
30
0
40
14.968360124143143
210
0
220
-0
230
1
100
AcDbArc
50
75.99861683704701
51
90.001703295892938
0
LINE
5
1E0
100
AcDbEntity
8
PERIMETER
100
AcDbLine
10
-84.941778630186903
20
-60.500243412976587
30
0
11
3.5531168978397432
21
-82.566768127360945
31
0
0
ARC
5
1E1
100
AcDbEntity
8
PERIMETER
100
AcDbCircle
10
7.5528697843945025
20
-66.526285159834202
30
0
40
16.531639875856797
210
0
220
0
230
1
100
AcDbArc
50
255.99861683704719
51
269.9979094460308
0
LINE
5
1E2
100
AcDbEntity
8
PERIMETER
100
AcDbLine
10
7.552266593624708
20
-83.057925024686682
30
0
11
35.95204165105347
21
-83.058961248698253
31
0
0
ARC
5
1E3
100
AcDbEntity
8
PERIMETER
100
AcDbCircle
10
35.952644841823265
20
-66.527321383845688
30
0
40
16.531639875856889
210
0
220
0
230
1
100
AcDbArc
50
269.99790944603086
51
283.99803311188475
0
LINE
5
1E4
100
AcDbEntity
8
PERIMETER
100
AcDbLine
10
39.951459843786026
20
-82.568038187190211
30
0
11
128.45173445874136
21
-60.505668397435613
31
0
0
ARC
5
1E5
100
AcDbEntity
8
PERIMETER
100
AcDbCircle
10
132.07240993126877
20
-75.029528556788364
30
0
40
14.968360124135035
210
0
220
-0
230
1
100
AcDbArc
50
89.997113386018412
51
103.99803311188448
0
LINE
5
1E6
100
AcDbEntity
8
PERIMETER
100
AcDbLine
10
132.07316405099564
20
-60.061168451649955
30
0
11
218.55266343744202
21
-60.065525368239619
31
0
0
LINE
5
1E7
100
AcDbEntity
8
PERIMETER
100
AcDbLine
10
218.55266343744202
20
-60.065525368239619
30
0
11
228.52276616243512
21
-60.06552536823957
31
0
0
ARC
5
1E8
100
AcDbEntity
8
PERIMETER
100
AcDbCircle
10
228.52276616243503
20
-55.06552536823952
30
0
40
5.0000000000000533
210
-0
220
0
230
1
100
AcDbArc
50
-89.999999999999019
51
0
0
LINE
5
1E9
100
AcDbEntity
8
PERIMETER
100
AcDbLine
10
233.52276616243512
20
-55.065525368239427
30
0
11
233.52276616243483
21
-45.089913766737922
31
0
0
LINE
5
1EA
100
AcDbEntity
8
PERIMETER
100
AcDbLine
10
233.52276616243483
20
-45.089913766737922
30
0
11
233.51576586581248
21
68.008384371895517
31
0
0
LINE
5
1EB
100
AcDbEntity
8
PERIMETER
100
AcDbLine
10
233.51576586581248
20
68.008384371895517
30
0
11
233.51576586581271
21
78.04463076132437
31
0
0
ARC
5
1EC
100
AcDbEntity
8
PERIMETER
100
AcDbCircle
10
228.51576586581257
20
78.04463076132437
30
0
40
5.0000000000001421
210
0
220
-0
230
1
100
AcDbArc
50
0
51
89.999999999997726
0
LINE
5
1ED
100
AcDbEntity
8
PERIMETER
100
AcDbLine
10
228.51576586581277
20
83.044630761324512
30
0
11
218.55266345278505
21
83.044630761324697
31
0
0
LINE
5
1EE
100
AcDbEntity
8
PERIMETER
100
AcDbLine
10
218.55266345278505
20
83.044630761324697
30
0
11
40.453314362986532
21
83.059035311872819
31
0
0
LINE
5
1EF
100
AcDbEntity
8
PERIMETER
100
AcDbLine
10
40.453314362986532
20
83.059035311872819
30
0
11
2.4533143352557119
21
83.059035311872819
31
0
0
LINE
5
1F0
100
AcDbEntity
8
PERIMETER
100
AcDbLine
10
2.4533143352557119
20
83.059035311872819
30
0
11
-218.54746450935423
21
82.978370672023289
31
0
0
LINE
5
1F1
100
AcDbEntity
8
PERIMETER
100
AcDbLine
10
-218.54746450935423
20
82.978370672023289
30
0
11
-228.52276616243483
21
82.978370672023644
31
0
0
ARC
5
1F2
100
AcDbEntity
8
PERIMETER
100
AcDbCircle
10
-228.52276616243495
20
77.978370672023587
30
0
40
5.0000000000000533
210
0
220
-0
230
1
100
AcDbArc
50
89.999999999998693
51
180
0
LINE
5
1F3
100
AcDbEntity
8
PERIMETER
100
AcDbLine
10
-233.522766162435
20
77.978370672023715
30
0
11
-233.52276616243518
21
68.009312198301402
31
0
0
LINE
5
1F4
100
AcDbEntity
8
PERIMETER
100
AcDbLine
10
-233.52276616243518
20
68.009312198301402
30
0
11
-233.51810459248367
21
-45.090841642199578
31
0
0
LINE
5
1F5
100
AcDbEntity
8
PERIMETER
100
AcDbLine
10
-233.51810459248367
20
-45.090841642199578
30
0
11
-233.51810459248367
21
-55.05939590288898
31
0
0
ARC
5
1F6
100
AcDbEntity
8
PERIMETER
100
AcDbCircle
10
-228.51810459248367
20
-55.05939590288898
30
0
40
5
210
0
220
0
230
1
100
AcDbArc
50
180
51
270
0
LINE
5
1F7
100
AcDbEntity
8
PERIMETER
100
AcDbLine
10
-228.51810459248367
20
-60.05939590288898
30
0
11
-218.54746449397314
21
-60.05939590288898
31
0
0
ENDSEC
0
SECTION
2
OBJECTS
0
DICTIONARY
5
C
100
AcDbDictionary
3
ACAD_GROUP
350
D
3
ACAD_MLINESTYLE
350
17
0
DICTIONARY
5
D
100
AcDbDictionary
0
DICTIONARY
5
1A
330
C
100
AcDbDictionary
0
DICTIONARY
5
17
100
AcDbDictionary
0
ENDSEC
0
EOF
