0
SECTION
2
HEADER
9
$INSUNITS
70
4
9
$ACADVER
1
AC1014
9
$HANDSEED
5
FFFF
0
ENDSEC
0
SECTION
2
TABLES
0
TABLE
2
VPORT
5
8
100
AcDbSymbolTable
0
ENDTAB
0
TABLE
2
LTYPE
5
5
100
AcDbSymbolTable
70
2
0
LTYPE
5
14
100
AcDbSymbolTableRecord
100
AcDbLinetypeTableRecord
2
BYBLOCK
70
0
0
LTYPE
5
15
100
AcDbSymbolTableRecord
100
AcDbLinetypeTableRecord
2
BYLAYER
70
0
0
ENDTAB
0
TABLE
2
LAYER
5
2
100
AcDbSymbolTable
70
3
0
LAYER
5
50
100
AcDbSymbolTableRecord
100
AcDbLayerTableRecord
2
0
70
0
6
CONTINUOUS
0
LAYER
5
51
100
AcDbSymbolTableRecord
100
AcDbLayerTableRecord
2
CUTOUTS
70
0
62
1
6
CONTINUOUS
0
LAYER
5
52
100
AcDbSymbolTableRecord
100
AcDbLayerTableRecord
2
PERIMETER
70
0
62
5
6
CONTINUOUS
0
ENDTAB
0
TABLE
2
STYLE
5
3
100
AcDbSymbolTable
70
1
0
STYLE
5
11
100
AcDbSymbolTableRecord
100
AcDbTextStyleTableRecord
2
STANDARD
70
0
0
ENDTAB
0
TABLE
2
VIEW
5
6
100
AcDbSymbolTable
0
ENDTAB
0
TABLE
2
UCS
5
7
100
AcDbSymbolTable
0
ENDTAB
0
TABLE
2
APPID
5
9
100
AcDbSymbolTable
70
1
0
APPID
5
12
100
AcDbSymbolTableRecord
100
AcDbRegAppTableRecord
2
ACAD
70
0
0
ENDTAB
0
TABLE
2
DIMSTYLE
5
A
100
AcDbSymbolTable
0
ENDTAB
0
TABLE
2
BLOCK_RECORD
5
1
100
AcDbSymbolTable
70
2
0
BLOCK_RECORD
5
1F
100
AcDbSymbolTableRecord
100
AcDbBlockTableRecord
2
*MODEL_SPACE
0
BLOCK_RECORD
5
1B
100
AcDbSymbolTableRecord
100
AcDbBlockTableRecord
2
*PAPER_SPACE
0
ENDTAB
0
ENDSEC
0
SECTION
2
BLOCKS
0
BLOCK
5
20
100
AcDbEntity
100
AcDbBlockBegin
2
*MODEL_SPACE
0
ENDBLK
5
21
100
AcDbEntity
100
AcDbBlockEnd
0
BLOCK
5
1C
100
AcDbEntity
100
AcDbBlockBegin
2
*PAPER_SPACE
0
ENDBLK
5
1D
100
AcDbEntity
100
AcDbBlockEnd
0
ENDSEC
0
SECTION
2
ENTITIES
0
CIRCLE
5
100
100
AcDbEntity
8
CUTOUTS
100
AcDbCircle
10
-59.84481036330628
20
-78.50184849874195
30
0
40
1.6000000000000014
210
0
220
0
230
1
0
CIRCLE
5
101
100
AcDbEntity
8
CUTOUTS
100
AcDbCircle
10
-147.00301152714857
20
-60.718215781797667
30
0
40
1.6000000000000014
210
0
220
0
230
1
0
CIRCLE
5
102
100
AcDbEntity
8
CUTOUTS
100
AcDbCircle
10
-228.48191018934591
20
-54.98881525473422
30
0
40
1.6000000000000369
210
0
220
0
230
1
0
CIRCLE
5
103
100
AcDbEntity
8
CUTOUTS
100
AcDbCircle
10
-228.48191018934591
20
11.499587341614834
30
0
40
1.6000000000000369
210
0
220
0
230
1
0
CIRCLE
5
104
100
AcDbEntity
8
CUTOUTS
100
AcDbCircle
10
-228.48206344305694
20
78.038859354687574
30
0
40
1.6000000000000369
210
0
220
0
230
1
0
CIRCLE
5
105
100
AcDbEntity
8
CUTOUTS
100
AcDbCircle
10
-147.00301152714857
20
78.073492815154651
30
0
40
1.6000000000000014
210
0
220
0
230
1
0
CIRCLE
5
106
100
AcDbEntity
8
CUTOUTS
100
AcDbCircle
10
-69.936227758644023
20
78.073492815154651
30
0
40
1.6000000000000014
210
0
220
0
230
1
0
CIRCLE
5
107
100
AcDbEntity
8
CUTOUTS
100
AcDbCircle
10
-50.140424343787977
20
78.073492815154651
30
0
40
1.6000000000000014
210
0
220
0
230
1
0
CIRCLE
5
108
100
AcDbEntity
8
CUTOUTS
100
AcDbCircle
10
5.3785375494770449
20
78.073492815154651
30
0
40
1.6000000000000369
210
0
220
0
230
1
0
CIRCLE
5
109
100
AcDbEntity
8
CUTOUTS
100
AcDbCircle
10
60.897499442742031
20
78.073492815154651
30
0
40
1.6000000000000369
210
0
220
0
230
1
0
CIRCLE
5
10A
100
AcDbEntity
8
CUTOUTS
100
AcDbCircle
10
144.90233702503878
20
78.073492815154651
30
0
40
1.6000000000000369
210
0
220
0
230
1
0
CIRCLE
5
10B
100
AcDbEntity
8
CUTOUTS
100
AcDbCircle
10
228.45691018934573
20
77.99981001490093
30
0
40
1.5999999999999659
210
0
220
0
230
1
0
CIRCLE
5
10C
100
AcDbEntity
8
CUTOUTS
100
AcDbCircle
10
228.45691018934573
20
11.500009999999872
30
0
40
1.5999999999999659
210
0
220
0
230
1
0
CIRCLE
5
10D
100
AcDbEntity
8
CUTOUTS
100
AcDbCircle
10
228.45691018934545
20
-54.999790014901123
30
0
40
1.5999999999999659
210
0
220
0
230
1
0
CIRCLE
5
10E
100
AcDbEntity
8
CUTOUTS
100
AcDbCircle
10
5.3785375494770449
20
-65.94308292179953
30
0
40
1.6000000000000369
210
0
220
0
230
1
0
CIRCLE
5
10F
100
AcDbEntity
8
CUTOUTS
100
AcDbCircle
10
144.90233702503878
20
-54.98881525473422
30
0
40
1.6000000000000369
210
0
220
0
230
1
0
CIRCLE
5
110
100
AcDbEntity
8
CUTOUTS
100
AcDbCircle
10
60.897499442742031
20
-54.98881525473422
30
0
40
1.6000000000000369
210
0
220
0
230
1
0
LINE
5
111
100
AcDbEntity
8
CUTOUTS
100
AcDbLine
10
147.77340702684688
20
71.124809999999897
30
0
11
222.97340702684693
21
71.124809999999911
31
0
0
ARC
5
112
100
AcDbEntity
8
CUTOUTS
100
AcDbCircle
10
222.97340702684698
20
70.124809999999925
30
0
40
0.99999999999994316
210
-0
220
0
230
1
100
AcDbArc
50
0
51
90.000000000003254
0
LINE
5
113
100
AcDbEntity
8
CUTOUTS
100
AcDbLine
10
223.97340702684693
20
70.124809999999911
30
0
11
223.97340702684693
21
52.074809999999886
31
0
0
ARC
5
114
100
AcDbEntity
8
CUTOUTS
100
AcDbCircle
10
222.97340702684679
20
52.074809999999999
30
0
40
1.000000000000103
210
-0
220
0
230
1
100
AcDbArc
50
270.00000000000813
51
360
0
LINE
5
115
100
AcDbEntity
8
CUTOUTS
100
AcDbLine
10
222.97340702684693
20
51.074809999999893
30
0
11
147.77340702684688
21
51.074809999999871
31
0
0
ARC
5
116
100
AcDbEntity
8
CUTOUTS
100
AcDbCircle
10
147.77340702684683
20
52.074809999999815
30
0
40
0.99999999999994316
210
0
220
0
230
1
100
AcDbArc
50
180
51
270.00000000000324
0
LINE
5
117
100
AcDbEntity
8
CUTOUTS
100
AcDbLine
10
146.77340702684688
20
52.074809999999886
30
0
11
146.77340702684688
21
70.124809999999883
31
0
0
ARC
5
118
100
AcDbEntity
8
CUTOUTS
100
AcDbCircle
10
147.77340702684683
20
70.124809999999954
30
0
40
0.99999999999994316
210
0
220
-0
230
1
100
AcDbArc
50
89.999999999996746
51
180
0
ARC
5
119
100
AcDbEntity
8
CUTOUTS
100
AcDbCircle
10
147.77340702684688
20
46.312809999999814
30
0
40
1.0000000000000675
210
0
220
-0
230
1
100
AcDbArc
50
90
51
180
0
LINE
5
11A
100
AcDbEntity
8
CUTOUTS
100
AcDbLine
10
146.77340702684688
20
-47.937290000000118
30
0
11
146.77340702684683
21
46.312809999999885
31
0
0
ARC
5
11B
100
AcDbEntity
8
CUTOUTS
100
AcDbCircle
10
147.77340702684683
20
-47.937290000000175
30
0
40
0.99999999999994316
210
0
220
0
230
1
100
AcDbArc
50
180
51
270.00000000000324
0
LINE
5
11C
100
AcDbEntity
8
CUTOUTS
100
AcDbLine
10
222.97340702684693
20
-48.937290000000118
30
0
11
147.77340702684688
21
-48.937290000000118
31
0
0
ARC
5
11D
100
AcDbEntity
8
CUTOUTS
100
AcDbCircle
10
222.97340702684687
20
-47.937290000000026
30
0
40
1.0000000000000941
210
-0
220
0
230
1
100
AcDbArc
50
270.00000000000324
51
360
0
LINE
5
11E
100
AcDbEntity
8
CUTOUTS
100
AcDbLine
10
223.97340702684693
20
46.312809999999885
30
0
11
223.97340702684693
21
-47.937290000000118
31
0
0
ARC
5
11F
100
AcDbEntity
8
CUTOUTS
100
AcDbCircle
10
222.97340702684698
20
46.312809999999928
30
0
40
0.99999999999994316
210
-0
220
0
230
1
100
AcDbArc
50
0
51
90.000000000003254
0
LINE
5
120
100
AcDbEntity
8
CUTOUTS
100
AcDbLine
10
147.77340702684688
20
47.312809999999885
30
0
11
222.97340702684693
21
47.312809999999871
31
0
0
ARC
5
121
100
AcDbEntity
8
CUTOUTS
100
AcDbCircle
10
142.03118511283128
20
52.074809999999886
30
0
40
0.99999999999999645
210
0
220
0
230
1
100
AcDbArc
50
-90.000000000003254
51
0
0
LINE
5
122
100
AcDbEntity
8
CUTOUTS
100
AcDbLine
10
143.03118511283131
20
70.124809999999954
30
0
11
143.03118511283122
21
52.074809999999907
31
0
0
ARC
5
123
100
AcDbEntity
8
CUTOUTS
100
AcDbCircle
10
142.03118511283122
20
70.124809999999925
30
0
40
1.0000000000000853
210
0
220
-0
230
1
100
AcDbArc
50
0
51
90
0
LINE
5
124
100
AcDbEntity
8
CUTOUTS
100
AcDbLine
10
66.831185112831122
20
71.124809999999897
30
0
11
142.03118511283122
21
71.124810000000011
31
0
0
ARC
5
125
100
AcDbEntity
8
CUTOUTS
100
AcDbCircle
10
66.831185112831122
20
70.124809999999968
30
0
40
0.99999999999992539
210
0
220
-0
230
1
100
AcDbArc
50
90
51
180
0
LINE
5
126
100
AcDbEntity
8
CUTOUTS
100
AcDbLine
10
65.831185112831179
20
52.074809999999907
30
0
11
65.831185112831179
21
70.124809999999954
31
0
0
ARC
5
127
100
AcDbEntity
8
CUTOUTS
100
AcDbCircle
10
66.831185112831122
20
52.074809999999857
30
0
40
0.99999999999994316
210
0
220
0
230
1
100
AcDbArc
50
180
51
270.00000000000409
0
LINE
5
128
100
AcDbEntity
8
CUTOUTS
100
AcDbLine
10
142.03118511283122
20
51.074809999999893
30
0
11
66.831185112831193
21
51.074809999999893
31
0
0
LINE
5
129
100
AcDbEntity
8
CUTOUTS
100
AcDbLine
10
-190.34381488716883
20
70.124809999999911
30
0
11
-190.34381488716883
21
52.074809999999871
31
0
0
ARC
5
12A
100
AcDbEntity
8
CUTOUTS
100
AcDbCircle
10
-191.34381488716883
20
52.074809999999871
30
0
40
0.99999999999997868
210
-0
220
0
230
1
100
AcDbArc
50
-90
51
0
0
LINE
5
12B
100
AcDbEntity
8
CUTOUTS
100
AcDbLine
10
-191.34381488716883
20
51.074809999999893
30
0
11
-209.39381488716887
21
51.074809999999893
31
0
0
ARC
5
12C
100
AcDbEntity
8
CUTOUTS
100
AcDbCircle
10
-209.39381488716884
20
52.074809999999871
30
0
40
0.99999999999997868
210
0
220
0
230
1
100
AcDbArc
50
180
51
270
0
LINE
5
12D
100
AcDbEntity
8
CUTOUTS
100
AcDbLine
10
-210.39381488716884
20
52.074809999999871
30
0
11
-210.39381488716884
21
70.124809999999911
31
0
0
ARC
5
12E
100
AcDbEntity
8
CUTOUTS
100
AcDbCircle
10
-209.39381488716884
20
70.124809999999911
30
0
40
0.99999999999999645
210
0
220
-0
230
1
100
AcDbArc
50
90
51
180
0
LINE
5
12F
100
AcDbEntity
8
CUTOUTS
100
AcDbLine
10
-209.39381488716884
20
71.124809999999897
30
0
11
-191.34381488716883
21
71.124809999999897
31
0
0
ARC
5
130
100
AcDbEntity
8
CUTOUTS
100
AcDbCircle
10
-191.34381488716883
20
70.124809999999911
30
0
40
1.0000000000000142
210
0
220
-0
230
1
100
AcDbArc
50
0
51
90
0
LINE
5
131
100
AcDbEntity
8
CUTOUTS
100
AcDbLine
10
0.74273515583826111
20
65.496053329174032
30
0
11
22.60382308177725
21
70.946596949806704
31
0
0
ARC
5
132
100
AcDbEntity
8
CUTOUTS
100
AcDbCircle
10
24.055344985131271
20
65.124820230961816
30
0
40
6.0000000000000586
210
0
220
0
230
1
100
AcDbArc
50
90.00000698422734
51
103.99990679733205
0
LINE
5
133
100
AcDbEntity
8
CUTOUTS
100
AcDbLine
10
24.055344253744693
20
71.124820230961831
30
0
11
61.068170933408652
21
71.124824742743286
31
0
0
ARC
5
134
100
AcDbEntity
8
CUTOUTS
100
AcDbCircle
10
61.068171055306379
20
70.124824742743229
30
0
40
1.0000000000000928
210
0
220
-0
230
1
100
AcDbArc
50
6.9360898910140305e-06
51
90.000006984225323
0
LINE
5
135
100
AcDbEntity
8
CUTOUTS
100
AcDbLine
10
62.068171055306465
20
70.12482486464107
30
0
11
62.068173255561447
21
52.074824864641172
31
0
0
ARC
5
136
100
AcDbEntity
8
CUTOUTS
100
AcDbCircle
10
61.068173255561362
20
52.074824742743466
30
0
40
1.0000000000000751
210
-0
220
0
230
1
100
AcDbArc
50
-89.999993015770613
51
6.9360898910140305e-06
0
LINE
5
137
100
AcDbEntity
8
CUTOUTS
100
AcDbLine
10
61.068173377459161
20
51.074824742743402
30
0
11
26.399667642958207
21
51.074820516729517
31
0
0
ARC
5
138
100
AcDbEntity
8
CUTOUTS
100
AcDbCircle
10
26.399668252447483
20
46.074820516727343
30
0
40
5.0000000000022036
210
0
220
0
230
1
100
AcDbArc
50
90.000006984232641
51
103.99563031676662
0
LINE
5
139
100
AcDbEntity
8
CUTOUTS
100
AcDbLine
10
25.190428777728897
20
50.926391385302225
30
0
11
4.622924551511467
21
45.800002699962391
31
0
0
ARC
5
13A
100
AcDbEntity
8
CUTOUTS
100
AcDbCircle
10
4.3810766565677639
20
46.770316873677004
30
0
40
1.0000000000000695
210
0
220
0
230
1
100
AcDbArc
50
193.99990679732915
51
283.99563031677087
0
LINE
5
13B
100
AcDbEntity
8
CUTOUTS
100
AcDbLine
10
3.410780536760214
20
46.528396556451369
30
0
11
3.3188266986514492
21
46.897205812910329
31
0
0
ARC
5
13C
100
AcDbEntity
8
CUTOUTS
100
AcDbCircle
10
2.3485305788440414
20
46.655285495684694
30
0
40
0.99999999999993161
210
0
220
-0
230
1
100
AcDbArc
50
13.999906797331104
51
103.99990679733318
0
LINE
5
13D
100
AcDbEntity
8
CUTOUTS
100
AcDbLine
10
2.1066102616183713
20
47.625581615492095
30
0
11
-13.466683053854496
21
43.742750403227731
31
0
0
ARC
5
13E
100
AcDbEntity
8
CUTOUTS
100
AcDbCircle
10
-13.224762736628861
20
42.772454283420629
30
0
40
0.99999999999963851
210
0
220
0
230
1
100
AcDbArc
50
103.99990679733534
51
193.99990679733151
0
LINE
5
13F
100
AcDbEntity
8
CUTOUTS
100
AcDbLine
10
-14.195058856435949
20
42.530533966195065
30
0
11
-14.102845572809706
21
42.160684123389615
31
0
0
ARC
5
140
100
AcDbEntity
8
CUTOUTS
100
AcDbCircle
10
-15.073141692617185
20
41.918763806163923
30
0
40
1.0000000000000004
210
-0
220
0
230
1
100
AcDbArc
50
-76.000093202665653
51
13.99990679733347
0
LINE
5
141
100
AcDbEntity
8
CUTOUTS
100
AcDbLine
10
-14.831221375391479
20
40.948467686356466
30
0
11
-31.374682210443225
21
36.823748220282383
31
0
0
ARC
5
142
100
AcDbEntity
8
CUTOUTS
100
AcDbCircle
10
-31.13276189321752
20
35.853452100474868
30
0
40
1.0000000000000522
210
0
220
0
230
1
100
AcDbArc
50
103.99990679733358
51
193.9999067973323
0
LINE
5
143
100
AcDbEntity
8
CUTOUTS
100
AcDbLine
10
-32.103058013025034
20
35.611531783249184
30
0
11
-32.01091462630373
21
35.24196228356022
31
0
0
ARC
5
144
100
AcDbEntity
8
CUTOUTS
100
AcDbCircle
10
-32.981210746111209
20
35.000041966334585
30
0
40
0.99999999999998446
210
-0
220
0
230
1
100
AcDbArc
50
-75.999026904503566
51
13.999906797330315
0
LINE
5
145
100
AcDbEntity
8
CUTOUTS
100
AcDbLine
10
-32.739272371315167
20
34.029750348932367
30
0
11
-50.254050388330676
21
29.662509766462719
31
0
0
ARC
5
146
100
AcDbEntity
8
CUTOUTS
100
AcDbCircle
10
-50.495988763126682
20
30.632801383865012
30
0
40
1.0000000000000344
210
0
220
0
230
1
100
AcDbArc
50
193.9956303167674
51
284.00097309549346
0
LINE
5
147
100
AcDbEntity
8
CUTOUTS
100
AcDbLine
10
-51.466302936841259
20
30.390953488921379
30
0
11
-55.831641398384804
21
47.905059961851833
31
0
0
ARC
5
148
100
AcDbEntity
8
CUTOUTS
100
AcDbCircle
10
-54.861327224670369
20
48.146907856795487
30
0
40
0.99999999999994027
210
0
220
0
230
1
100
AcDbArc
50
103.99990679732895
51
193.99563031677047
0
LINE
5
149
100
AcDbEntity
8
CUTOUTS
100
AcDbLine
10
-55.103247541895968
20
49.117203976602909
30
0
11
-38.559969561624214
21
53.241877852175904
31
0
0
ARC
5
14A
100
AcDbEntity
8
CUTOUTS
100
AcDbCircle
10
-38.801889878849849
20
54.21217397198339
30
0
40
1.0000000000000004
210
-0
220
0
230
1
100
AcDbArc
50
-76.000093202669973
51
13.999906797331027
0
LINE
5
14B
100
AcDbEntity
8
CUTOUTS
100
AcDbLine
10
-37.83159375904237
20
54.454094289209038
30
0
11
-37.923807042668614
21
54.823944132014105
31
0
0
ARC
5
14C
100
AcDbEntity
8
CUTOUTS
100
AcDbCircle
10
-36.953510922861064
20
55.065864449239697
30
0
40
1.0000000000000608
210
0
220
0
230
1
100
AcDbArc
50
103.99990679733556
51
193.99990679732676
0
LINE
5
14D
100
AcDbEntity
8
CUTOUTS
100
AcDbLine
10
-37.195431240086805
20
56.036160569047212
30
0
11
-20.652009116881374
21
60.16087038324082
31
0
0
ARC
5
14E
100
AcDbEntity
8
CUTOUTS
100
AcDbCircle
10
-20.893927182988428
20
61.131157474242158
30
0
40
0.99999069479310831
210
-0
220
0
230
1
100
AcDbArc
50
-76.000093202668651
51
14.000973095496677
0
LINE
5
14F
100
AcDbEntity
8
CUTOUTS
100
AcDbLine
10
-19.923644594350449
20
61.373093597751577
30
0
11
-20.016084968515351
21
61.743863325556191
31
0
0
ARC
5
150
100
AcDbEntity
8
CUTOUTS
100
AcDbCircle
10
-19.045798316933471
20
61.98580046214456
30
0
40
0.99999488213618615
210
0
220
0
230
1
100
AcDbArc
50
103.99990679732969
51
194.000973095495
0
LINE
5
151
100
AcDbEntity
8
CUTOUTS
100
AcDbLine
10
-19.28771739604386
20
62.956091616108637
30
0
11
-1.7739318811901938
21
67.322738520165416
31
0
0
ARC
5
152
100
AcDbEntity
8
CUTOUTS
100
AcDbCircle
10
-1.5320115639644882
20
66.352442400358015
30
0
40
0.99999999999996603
210
0
220
-0
230
1
100
AcDbArc
50
13.999906797330604
51
103.99990679733499
0
LINE
5
153
100
AcDbEntity
8
CUTOUTS
100
AcDbLine
10
-0.56171544415704489
20
66.59436271758365
30
0
11
-0.46948128119485233
21
66.224429131755812
31
0
0
ARC
5
154
100
AcDbEntity
8
CUTOUTS
100
AcDbCircle
10
0.50081483861259102
20
66.466349448981475
30
0
40
0.99999999999997469
210
0
220
0
230
1
100
AcDbArc
50
193.99990679733216
51
283.99990679733259
0
ARC
5
155
100
AcDbEntity
8
CUTOUTS
100
AcDbCircle
10
-44.784180880000264
20
-71.016903938451819
30
0
40
1.0000010235116454
210
0
220
0
230
1
100
AcDbArc
50
194.00011306000096
51
283.99989981310318
0
LINE
5
156
100
AcDbEntity
8
CUTOUTS
100
AcDbLine
10
-45.754477122005817
20
-71.258827996317592
30
0
11
-54.729826789622216
21
-35.260969288088205
31
0
0
ARC
5
157
100
AcDbEntity
8
CUTOUTS
100
AcDbCircle
10
-53.759532533833685
20
-35.019045725446063
30
0
40
0.99999897648831482
210
0
220
0
230
1
100
AcDbArc
50
103.99989981310154
51
194.00011306000414
0
LINE
5
158
100
AcDbEntity
8
CUTOUTS
100
AcDbLine
10
-54.001452485174219
20
-34.048750569258488
30
0
11
-37.458082822076264
21
-29.924055976707116
31
0
0
ARC
5
159
100
AcDbEntity
8
CUTOUTS
100
AcDbCircle
10
-37.700003268633999
20
-28.953758834297041
30
0
40
1.0000010235154038
210
-0
220
0
230
1
100
AcDbArc
50
-76.00010018689845
51
14.000113060001933
0
LINE
5
15A
100
AcDbEntity
8
CUTOUTS
100
AcDbLine
10
-36.729707026624823
20
-28.711834776430347
30
0
11
-50.071803068235354
21
24.799935571425227
31
0
0
ARC
5
15B
100
AcDbEntity
8
CUTOUTS
100
AcDbCircle
10
-49.10150781933833
20
25.041859381679181
30
0
40
0.99999999999998956
210
0
220
0
230
1
100
AcDbArc
50
103.999899813102
51
194.000113060003
0
LINE
5
15C
100
AcDbEntity
8
CUTOUTS
100
AcDbLine
10
-49.343428018287021
20
26.012155530976191
30
0
11
-32.314839675785763
21
30.257827826613326
31
0
0
ARC
5
15D
100
AcDbEntity
8
CUTOUTS
100
AcDbCircle
10
-32.556759874734489
20
31.2281239759103
30
0
40
0.9999999999999637
210
-0
220
0
230
1
100
AcDbArc
50
-76.000100186895537
51
14.000006435755134
0
LINE
5
15E
100
AcDbEntity
8
CUTOUTS
100
AcDbLine
10
-31.586464175632436
20
31.47004598049854
30
0
11
-31.678677202041214
21
31.839892051664833
31
0
0
ARC
5
15F
100
AcDbEntity
8
CUTOUTS
100
AcDbCircle
10
-30.708381502939162
20
32.081814056253108
30
0
40
0.99999999999998956
210
0
220
0
230
1
100
AcDbArc
50
103.99989981310196
51
194.00000643575711
0
LINE
5
160
100
AcDbEntity
8
CUTOUTS
100
AcDbLine
10
-30.950301701887852
20
33.052110205550122
30
0
11
-14.406831505644
21
37.176829863643235
31
0
0
ARC
5
161
100
AcDbEntity
8
CUTOUTS
100
AcDbCircle
10
-14.648751704592691
20
38.147126012940227
30
0
40
0.99999999999997224
210
-0
220
0
230
1
100
AcDbArc
50
-76.000100186897726
51
13.999899813102234
0
LINE
5
162
100
AcDbEntity
8
CUTOUTS
100
AcDbLine
10
-13.678455555295699
20
38.389046211888918
30
0
11
-13.770668793838077
21
38.758896065934678
31
0
0
ARC
5
163
100
AcDbEntity
8
CUTOUTS
100
AcDbCircle
10
-12.800372644541049
20
39.000816264883369
30
0
40
0.99999999999999822
210
0
220
0
230
1
100
AcDbArc
50
103.99989981310394
51
193.99989981310185
0
LINE
5
164
100
AcDbEntity
8
CUTOUTS
100
AcDbLine
10
-13.042292843489776
20
39.971112414180382
30
0
11
3.5011684943560084
21
44.095829863643289
31
0
0
ARC
5
165
100
AcDbEntity
8
CUTOUTS
100
AcDbCircle
10
3.7430886933046992
20
43.125533714346211
30
0
40
1.0000000000000973
210
0
220
-0
230
1
100
AcDbArc
50
13.999899813105889
51
103.99989981310101
0
LINE
5
166
100
AcDbEntity
8
CUTOUTS
100
AcDbLine
10
4.7133848426017977
20
43.367453913294995
30
0
11
4.8056189604698929
21
42.997520316224097
31
0
0
ARC
5
167
100
AcDbEntity
8
CUTOUTS
100
AcDbCircle
10
5.7759151097668848
20
43.239440515172802
30
0
40
0.99999999999997657
210
0
220
0
230
1
100
AcDbArc
50
193.99989981310301
51
283.99989981310654
0
LINE
5
168
100
AcDbEntity
8
CUTOUTS
100
AcDbLine
10
6.0178353087156466
20
42.269144365875832
30
0
11
25.591773069803523
21
47.149438821133515
31
0
0
ARC
5
169
100
AcDbEntity
8
CUTOUTS
100
AcDbCircle
10
26.92233416402118
20
41.812810000001178
30
0
40
5.4999999999987281
210
0
220
0
230
1
100
AcDbArc
50
90.000000000000739
51
103.99989981310364
0
LINE
5
16A
100
AcDbEntity
8
CUTOUTS
100
AcDbLine
10
26.922334164021109
20
47.312809999999899
30
0
11
122.98118511283128
21
47.312809999999885
31
0
0
ARC
5
16B
100
AcDbEntity
8
CUTOUTS
100
AcDbCircle
10
122.98118511283135
20
46.312809999999956
30
0
40
0.9999999999998721
210
-0
220
0
230
1
100
AcDbArc
50
0
51
90.000000000004079
0
LINE
5
16C
100
AcDbEntity
8
CUTOUTS
100
AcDbLine
10
123.98118511283123
20
46.312809999999942
30
0
11
123.98118511283123
21
28.262809999999838
31
0
0
ARC
5
16D
100
AcDbEntity
8
CUTOUTS
100
AcDbCircle
10
122.98118511283128
20
28.262809999999838
30
0
40
0.99999999999996092
210
-0
220
0
230
1
100
AcDbArc
50
-90
51
0
0
LINE
5
16E
100
AcDbEntity
8
CUTOUTS
100
AcDbLine
10
122.98118511283128
20
27.262809999999877
30
0
11
120.22218511283107
21
27.262809999999877
31
0
0
ARC
5
16F
100
AcDbEntity
8
CUTOUTS
100
AcDbCircle
10
120.22218511283107
20
26.262809999999863
30
0
40
1.0000000000000142
210
0
220
-0
230
1
100
AcDbArc
50
90
51
180
0
LINE
5
170
100
AcDbEntity
8
CUTOUTS
100
AcDbLine
10
119.22218511283106
20
26.262809999999863
30
0
11
119.2221851128312
21
-8.8372900000001664
31
0
0
ARC
5
171
100
AcDbEntity
8
CUTOUTS
100
AcDbCircle
10
120.22218511283114
20
-8.8372900000001664
30
0
40
0.99999999999994316
210
0
220
0
230
1
100
AcDbArc
50
180
51
270
0
LINE
5
172
100
AcDbEntity
8
CUTOUTS
100
AcDbLine
10
120.22218511283114
20
-9.8372900000001096
30
0
11
122.98118511283121
21
-9.8372900000001096
31
0
0
ARC
5
173
100
AcDbEntity
8
CUTOUTS
100
AcDbCircle
10
122.98118511283121
20
-10.837290000000106
30
0
40
1.0000000000000142
210
-0
220
0
230
1
100
AcDbArc
50
0
51
90
0
LINE
5
174
100
AcDbEntity
8
CUTOUTS
100
AcDbLine
10
123.98118511283123
20
-10.837290000000124
30
0
11
123.98118511283123
21
-27.887290000000178
31
0
0
ARC
5
175
100
AcDbEntity
8
CUTOUTS
100
AcDbCircle
10
124.98118511283117
20
-27.887290000000178
30
0
40
0.99999999999994316
210
0
220
0
230
1
100
AcDbArc
50
180
51
270
0
LINE
5
176
100
AcDbEntity
8
CUTOUTS
100
AcDbLine
10
124.98118511283117
20
-28.887290000000121
30
0
11
142.03118511283122
21
-28.887290000000121
31
0
0
ARC
5
177
100
AcDbEntity
8
CUTOUTS
100
AcDbCircle
10
142.03118511283122
20
-29.887290000000117
30
0
40
1.0000000000000142
210
-0
220
0
230
1
100
AcDbArc
50
0
51
90
0
LINE
5
178
100
AcDbEntity
8
CUTOUTS
100
AcDbLine
10
143.03118511283122
20
-29.887290000000135
30
0
11
143.03118511283122
21
-47.937290000000175
31
0
0
ARC
5
179
100
AcDbEntity
8
CUTOUTS
100
AcDbCircle
10
142.03118511283128
20
-47.937290000000189
30
0
40
0.99999999999994316
210
-0
220
0
230
1
100
AcDbArc
50
-90
51
0
0
LINE
5
17A
100
AcDbEntity
8
CUTOUTS
100
AcDbLine
10
142.03118511283128
20
-48.937290000000132
30
0
11
38.25593511283131
21
-48.937290000000111
31
0
0
ARC
5
17B
100
AcDbEntity
8
CUTOUTS
100
AcDbCircle
10
38.255935112831381
20
-47.93728999999999
30
0
40
1.0000000000001563
210
0
220
0
230
1
100
AcDbArc
50
180
51
269.99999999999591
0
LINE
5
17C
100
AcDbEntity
8
CUTOUTS
100
AcDbLine
10
37.255935112831224
20
-47.937290000000026
30
0
11
37.255935112831224
21
-30.785280623753732
31
0
0
ARC
5
17D
100
AcDbEntity
8
CUTOUTS
100
AcDbCircle
10
36.25593511283121
20
-30.785280623753735
30
0
40
1.0000000000000142
210
0
220
-0
230
1
100
AcDbArc
50
0
51
103.99989981310168
0
LINE
5
17E
100
AcDbEntity
8
CUTOUTS
100
AcDbLine
10
36.014014913882519
20
-29.814984474456701
30
0
11
25.179284272715208
21
-32.516366103319179
31
0
0
ARC
5
17F
100
AcDbEntity
8
CUTOUTS
100
AcDbCircle
10
25.421204583987986
20
-33.486662703126761
30
0
40
1.0000004643021274
210
0
220
0
230
1
100
AcDbArc
50
103.99989981310331
51
194.00011305999828
0
LINE
5
180
100
AcDbEntity
8
CUTOUTS
100
AcDbLine
10
24.450908884580755
20
-33.728586625706392
30
0
11
28.57571447320133
21
-50.27213724504918
31
0
0
ARC
5
181
100
AcDbEntity
8
CUTOUTS
100
AcDbCircle
10
27.605419224304342
20
-50.514061055303195
30
0
40
0.99999999999994649
210
-0
220
0
230
1
100
AcDbArc
50
-76.000100186901605
51
14.000113060006376
0
LINE
5
182
100
AcDbEntity
8
CUTOUTS
100
AcDbLine
10
27.847339423252961
20
-51.48435720460018
30
0
11
6.6829464343214084
21
-56.761193731490138
31
0
0
ARC
5
183
100
AcDbEntity
8
CUTOUTS
100
AcDbCircle
10
6.9248654830961698
20
-57.731485267657199
30
0
40
0.99999524564746645
210
0
220
0
230
1
100
AcDbArc
50
103.9998998131008
51
194.00011306000135
0
LINE
5
184
100
AcDbEntity
8
CUTOUTS
100
AcDbLine
10
5.9545748473247784
20
-57.973407927720061
30
0
11
6.0468207063784263
21
-58.343402402545536
31
0
0
ARC
5
185
100
AcDbEntity
8
CUTOUTS
100
AcDbCircle
10
5.0765254574812957
20
-58.585326212799444
30
0
40
1.0000000000000413
210
-0
220
0
230
1
100
AcDbArc
50
-76.000100186892396
51
14.000113059997936
0
LINE
5
186
100
AcDbEntity
8
CUTOUTS
100
AcDbLine
10
5.318445656430093
20
-59.555622362096479
30
0
11
-44.542260681051538
21
-71.98720008774886
31
0
0
LINE
5
187
100
AcDbEntity
8
CUTOUTS
100
AcDbLine
10
-88.375957562092538
20
36.823744746117981
30
0
11
-104.91941889993828
21
40.948462195580788
31
0
0
ARC
5
188
100
AcDbEntity
8
CUTOUTS
100
AcDbCircle
10
-104.67749870098956
20
41.918758344877816
30
0
40
1.0000000000000153
210
0
220
0
230
1
100
AcDbArc
50
166.00010018689628
51
256.00010018689665
0
LINE
5
189
100
AcDbEntity
8
CUTOUTS
100
AcDbLine
10
-105.64779485028659
20
42.160678543826542
30
0
11
-105.5555816117441
21
42.530528397872573
31
0
0
ARC
5
18A
100
AcDbEntity
8
CUTOUTS
100
AcDbCircle
10
-106.52587776104082
20
42.772448596821206
30
0
40
0.99999999999968359
210
-0
220
0
230
1
100
AcDbArc
50
-13.999899813102928
51
76.000100186895395
0
LINE
5
18B
100
AcDbEntity
8
CUTOUTS
100
AcDbLine
10
-106.28395756209216
20
43.742744746117914
30
0
11
-121.85725135087338
21
47.625574060032335
31
0
0
ARC
5
18C
100
AcDbEntity
8
CUTOUTS
100
AcDbCircle
10
-122.0991715498221
20
46.655277910735329
30
0
40
0.99999999999999822
210
0
220
-0
230
1
100
AcDbArc
50
76.000100186896361
51
166.00010018689687
0
LINE
5
18D
100
AcDbEntity
8
CUTOUTS
100
AcDbLine
10
-123.06946769911914
20
46.897198109684041
30
0
11
-123.16142149227083
21
46.528388842016106
31
0
0
ARC
5
18E
100
AcDbEntity
8
CUTOUTS
100
AcDbCircle
10
-124.13171764156797
20
46.770309040964889
30
0
40
1.0000000000001086
210
0
220
0
230
1
100
AcDbArc
50
256.00437666746205
51
346.00010018689449
0
LINE
5
18F
100
AcDbEntity
8
CUTOUTS
100
AcDbLine
10
-124.37356541823246
20
45.799994837769518
30
0
11
-144.94107026934518
21
50.926381015976148
31
0
0
ARC
5
190
100
AcDbEntity
8
CUTOUTS
100
AcDbCircle
10
-146.150309152668
20
46.07480999999769
30
0
40
5.0000000000022062
210
0
220
-0
230
1
100
AcDbArc
50
76.004376667462068
51
89.999999999996092
0
LINE
5
191
100
AcDbEntity
8
CUTOUTS
100
AcDbLine
10
-146.15030915266766
20
51.074809999999914
30
0
11
-180.8188148871688
21
51.074809999999893
31
0
0
ARC
5
192
100
AcDbEntity
8
CUTOUTS
100
AcDbCircle
10
-180.8188148871688
20
52.074809999999871
30
0
40
0.99999999999997868
210
0
220
0
230
1
100
AcDbArc
50
180
51
270
0
LINE
5
193
100
AcDbEntity
8
CUTOUTS
100
AcDbLine
10
-181.81881488716883
20
52.074809999999871
30
0
11
-181.81881488716883
21
70.124809999999911
31
0
0
ARC
5
194
100
AcDbEntity
8
CUTOUTS
100
AcDbCircle
10
-180.8188148871688
20
70.124809999999911
30
0
40
0.99999999999999645
210
0
220
-0
230
1
100
AcDbArc
50
90
51
180
0
LINE
5
195
100
AcDbEntity
8
CUTOUTS
100
AcDbLine
10
-180.8188148871688
20
71.124809999999897
30
0
11
-143.80598820750458
21
71.124809999999897
31
0
0
ARC
5
196
100
AcDbEntity
8
CUTOUTS
100
AcDbCircle
10
-143.80598820750447
20
65.12480999999994
30
0
40
5.9999999999999627
210
0
220
-0
230
1
100
AcDbArc
50
76.000100186895537
51
90.000000000001094
0
LINE
5
197
100
AcDbEntity
8
CUTOUTS
100
AcDbLine
10
-142.35446701381207
20
70.946586895781962
30
0
11
-120.49337842346415
21
65.496045939967459
31
0
0
ARC
5
198
100
AcDbEntity
8
CUTOUTS
100
AcDbCircle
10
-120.25145822451542
20
66.46634208926443
30
0
40
0.9999999999999637
210
0
220
0
230
1
100
AcDbArc
50
256.00010018689505
51
346.00010018689665
0
LINE
5
199
100
AcDbEntity
8
CUTOUTS
100
AcDbLine
10
-119.28116207521842
20
66.224421890315725
30
0
11
-119.18892795735033
21
66.594355487386679
31
0
0
ARC
5
19A
100
AcDbEntity
8
CUTOUTS
100
AcDbCircle
10
-118.21863180805335
20
66.352435288437988
30
0
40
0.9999999999999637
210
0
220
-0
230
1
100
AcDbArc
50
76.000100186895082
51
166.00010018689767
0
LINE
5
19B
100
AcDbEntity
8
CUTOUTS
100
AcDbLine
10
-117.97671160910461
20
67.322731437734959
30
0
11
-100.46292556196647
21
62.956086668569782
31
0
0
ARC
5
19C
100
AcDbEntity
8
CUTOUTS
100
AcDbCircle
10
-100.70484452280058
20
61.985795485116242
30
0
40
0.99999488213625043
210
-0
220
0
230
1
100
AcDbArc
50
-14.000966111261803
51
76.000100186896717
0
LINE
5
19D
100
AcDbEntity
8
CUTOUTS
100
AcDbLine
10
-99.734557841727025
20
61.743858466803729
30
0
11
-99.827007199460454
21
61.373090979016297
31
0
0
ARC
5
19E
100
AcDbEntity
8
CUTOUTS
100
AcDbCircle
10
-98.856715552566499
20
61.131152722496736
30
0
40
0.99999999999995404
210
0
220
0
230
1
100
AcDbArc
50
165.99903388873656
51
256.00010018689653
0
LINE
5
19F
100
AcDbEntity
8
CUTOUTS
100
AcDbLine
10
-99.098635751515218
20
60.160856573199766
30
0
11
-82.555210874399449
21
56.036157804419005
31
0
0
ARC
5
1A0
100
AcDbEntity
8
CUTOUTS
100
AcDbCircle
10
-82.797131073348211
20
55.065861655121978
30
0
40
1.0000000000000455
210
-0
220
0
230
1
100
AcDbArc
50
-13.999899813102164
51
76.000100186894585
0
LINE
5
1A1
100
AcDbEntity
8
CUTOUTS
100
AcDbLine
10
-81.826834924051155
20
54.823941456173273
30
0
11
-81.919048162593526
21
54.454091602127633
31
0
0
ARC
5
1A2
100
AcDbEntity
8
CUTOUTS
100
AcDbCircle
10
-80.948752013296456
20
54.212171403178914
30
0
40
1.00000000000005
210
0
220
0
230
1
100
AcDbArc
50
166.00010018689727
51
256.00010018689647
0
LINE
5
1A3
100
AcDbEntity
8
CUTOUTS
100
AcDbLine
10
-81.19067221224519
20
53.241875253881844
30
0
11
-64.647393729184984
21
49.117203394897793
31
0
0
ARC
5
1A4
100
AcDbEntity
8
CUTOUTS
100
AcDbCircle
10
-64.889313928133674
20
48.146907245600836
30
0
40
0.9999999999999577
210
-0
220
0
230
1
100
AcDbArc
50
-13.995623332541307
51
76.000100186896773
0
LINE
5
1A5
100
AcDbEntity
8
CUTOUTS
100
AcDbLine
10
-63.918999724938459
20
47.905059468936329
30
0
11
-68.284336051551264
21
30.390952463880936
31
0
0
ARC
5
1A6
100
AcDbEntity
8
CUTOUTS
100
AcDbCircle
10
-69.254650254746622
20
30.632800240545475
30
0
40
1.0000000000000746
210
0
220
0
230
1
100
AcDbArc
50
255.99903388873912
51
346.00437666745893
0
LINE
5
1A7
100
AcDbEntity
8
CUTOUTS
100
AcDbLine
10
-69.496588511266168
20
29.662508593651395
30
0
11
-87.011367060638463
21
34.029747041108408
31
0
0
ARC
5
1A8
100
AcDbEntity
8
CUTOUTS
100
AcDbCircle
10
-86.769428804118832
20
35.000038688002384
30
0
40
1.0000000000000111
210
0
220
0
230
1
100
AcDbArc
50
166.00010018689687
51
255.99903388873244
0
LINE
5
1A9
100
AcDbEntity
8
CUTOUTS
100
AcDbLine
10
-87.739724953415845
20
35.241958886951096
30
0
11
-87.647581611744158
21
35.611528397872107
31
0
0
ARC
5
1AA
100
AcDbEntity
8
CUTOUTS
100
AcDbCircle
10
-88.617877761041299
20
35.853448596820847
30
0
40
1.0000000000001232
210
-0
220
0
230
1
100
AcDbArc
50
-13.999899813102928
51
76.000100186895679
0
LINE
5
1AB
100
AcDbEntity
8
CUTOUTS
100
AcDbLine
10
-200.86781488716883
20
9.4876099999998864
30
0
11
-200.86781488716883
21
27.537809999999894
31
0
0
ARC
5
1AC
100
AcDbEntity
8
CUTOUTS
100
AcDbCircle
10
-199.86781488716886
20
27.537809999999894
30
0
40
0.99999999999999645
210
0
220
-0
230
1
100
AcDbArc
50
90
51
180
0
LINE
5
1AD
100
AcDbEntity
8
CUTOUTS
100
AcDbLine
10
-199.86781488716886
20
28.53780999999989
30
0
11
-187.58181488716886
21
28.53780999999989
31
0
0
ARC
5
1AE
100
AcDbEntity
8
CUTOUTS
100
AcDbCircle
10
-187.58181488716883
20
29.537809999999887
30
0
40
0.99999999999999645
210
-0
220
0
230
1
100
AcDbArc
50
-90
51
0
0
LINE
5
1AF
100
AcDbEntity
8
CUTOUTS
100
AcDbLine
10
-186.58181488716883
20
29.537809999999887
30
0
11
-186.58181488716883
21
46.312809999999907
31
0
0
ARC
5
1B0
100
AcDbEntity
8
CUTOUTS
100
AcDbCircle
10
-185.58181488716883
20
46.312809999999907
30
0
40
0.99999999999997868
210
0
220
-0
230
1
100
AcDbArc
50
90
51
180
0
LINE
5
1B1
100
AcDbEntity
8
CUTOUTS
100
AcDbLine
10
-185.58181488716883
20
47.312809999999885
30
0
11
-146.6125721016453
21
47.312809999999885
31
0
0
ARC
5
1B2
100
AcDbEntity
8
CUTOUTS
100
AcDbCircle
10
-146.6125721016455
20
42.312809999999139
30
0
40
5.0000000000007478
210
0
220
-0
230
1
100
AcDbArc
50
76.000100186896603
51
89.999999999998053
0
LINE
5
1B3
100
AcDbEntity
8
CUTOUTS
100
AcDbLine
10
-145.40297110690173
20
47.164290746484937
30
0
11
-125.76927723916799
21
42.269097531483908
31
0
0
ARC
5
1B4
100
AcDbEntity
8
CUTOUTS
100
AcDbCircle
10
-125.52735704021927
20
43.23939368078095
30
0
40
1.0000000000000324
210
0
220
0
230
1
100
AcDbArc
50
256.00010018689687
51
345.99903388873474
0
LINE
5
1B5
100
AcDbEntity
8
CUTOUTS
100
AcDbLine
10
-124.55706539332525
20
42.997455424261339
30
0
11
-124.46474773495808
21
43.36769473268275
31
0
0
ARC
5
1B6
100
AcDbEntity
8
CUTOUTS
100
AcDbCircle
10
-123.49445608806413
20
43.125756476163261
30
0
40
0.99999999999993661
210
0
220
-0
230
1
100
AcDbArc
50
75.999033888732058
51
165.99903388874057
0
LINE
5
1B7
100
AcDbEntity
8
CUTOUTS
100
AcDbLine
10
-123.25251783154449
20
44.096048123057173
30
0
11
-106.70840853723021
21
39.970842087172102
31
0
0
ARC
5
1B8
100
AcDbEntity
8
CUTOUTS
100
AcDbCircle
10
-106.95034679374984
20
39.000550440278104
30
0
40
1.0000000000000024
210
-0
220
0
230
1
100
AcDbArc
50
-13.999899813100589
51
75.999033888733123
0
LINE
5
1B9
100
AcDbEntity
8
CUTOUTS
100
AcDbLine
10
-105.98005064445282
20
38.758630241329435
30
0
11
-106.07218712021319
21
38.389088268279693
31
0
0
ARC
5
1BA
100
AcDbEntity
8
CUTOUTS
100
AcDbCircle
10
-105.10189097091612
20
38.147168069331059
30
0
40
1.0000000000000284
210
0
220
0
230
1
100
AcDbArc
50
166.00010018690199
51
255.99903388873341
0
LINE
5
1BB
100
AcDbEntity
8
CUTOUTS
100
AcDbLine
10
-105.34382922743575
20
37.176876422437033
30
0
11
-88.800394861180507
21
33.051838677104982
31
0
0
ARC
5
1BC
100
AcDbEntity
8
CUTOUTS
100
AcDbCircle
10
-89.042333117700025
20
32.081547030211013
30
0
40
0.9999999999999355
210
-0
220
0
230
1
100
AcDbArc
50
-14.000219685837786
51
75.99903388873966
0
LINE
5
1BD
100
AcDbEntity
8
CUTOUTS
100
AcDbLine
10
-88.072038319018134
20
31.839621414265302
30
0
11
-88.164183273778605
21
31.470054223212145
31
0
0
ARC
5
1BE
100
AcDbEntity
8
CUTOUTS
100
AcDbCircle
10
-87.193888475096742
20
31.228128607266381
30
0
40
0.99999999999991385
210
0
220
0
230
1
100
AcDbArc
50
165.99978031415881
51
256.00010018689932
0
LINE
5
1BF
100
AcDbEntity
8
CUTOUTS
100
AcDbLine
10
-87.43580867404539
20
30.257832457969442
30
0
11
-70.407201508438746
21
26.012156524084649
31
0
0
ARC
5
1C0
100
AcDbEntity
8
CUTOUTS
100
AcDbCircle
10
-70.649121707387437
20
25.041860374787657
30
0
40
0.99999999999996025
210
-0
220
0
230
1
100
AcDbArc
50
-14.000113060001707
51
76.000100186898393
0
LINE
5
1C1
100
AcDbEntity
8
CUTOUTS
100
AcDbLine
10
-69.67882645849042
20
24.79993656453372
30
0
11
-83.020921938488527
21
-28.711835761570867
31
0
0
ARC
5
1C2
100
AcDbEntity
8
CUTOUTS
100
AcDbCircle
10
-82.050626434008052
20
-28.953759635549456
30
0
40
1.0000002634078933
210
0
220
0
230
1
100
AcDbArc
50
165.99988693999811
51
256.00010018689733
0
LINE
5
1C3
100
AcDbEntity
8
CUTOUTS
100
AcDbLine
10
-82.292546696680446
20
-29.924056040430138
30
0
11
-65.749178282276475
21
-34.048750321649457
31
0
0
ARC
5
1C4
100
AcDbEntity
8
CUTOUTS
100
AcDbCircle
10
-65.991098481225208
20
-35.019046470946471
30
0
40
0.99999999999999689
210
-0
220
0
230
1
100
AcDbArc
50
-14.000113060001503
51
76.000100186895679
0
LINE
5
1C5
100
AcDbEntity
8
CUTOUTS
100
AcDbLine
10
-65.020803232328149
20
-35.260970281200414
30
0
11
-73.996204408523027
21
-71.259035577317292
31
0
0
ARC
5
1C6
100
AcDbEntity
8
CUTOUTS
100
AcDbCircle
10
-74.966499657420059
20
-71.017111767063355
30
0
40
0.99999999999998956
210
0
220
0
230
1
100
AcDbArc
50
256.00010018689466
51
345.99988693999893
0
LINE
5
1C7
100
AcDbEntity
8
CUTOUTS
100
AcDbLine
10
-75.208419856368806
20
-71.987407916360354
30
0
11
-111.20651775474553
21
-63.01214092013435
31
0
0
ARC
5
1C8
100
AcDbEntity
8
CUTOUTS
100
AcDbCircle
10
-110.96459775019201
20
-62.041845550519518
30
0
40
1.0000000000000551
210
0
220
0
230
1
100
AcDbArc
50
165.99999356424129
51
256.00010018689972
0
LINE
5
1C9
100
AcDbEntity
8
CUTOUTS
100
AcDbLine
10
-111.93489344929415
20
-61.799923545931193
30
0
11
-111.84258295159751
21
-61.42968653896915
31
0
0
ARC
5
1CA
100
AcDbEntity
8
CUTOUTS
100
AcDbCircle
10
-112.81287865069967
20
-61.187764534380861
30
0
40
1.0000000000000853
210
-0
220
0
230
1
100
AcDbArc
50
-14.000006435756722
51
76.000527827791302
0
LINE
5
1CB
100
AcDbEntity
8
CUTOUTS
100
AcDbLine
10
-112.57096569379743
20
-60.217466579480927
30
0
11
-156.84098124459712
21
-49.180145198023013
31
0
0
ARC
5
1CC
100
AcDbEntity
8
CUTOUTS
100
AcDbCircle
10
-156.59906890803413
20
-48.20984973126567
30
0
40
0.99999743569232202
210
0
220
0
230
1
100
AcDbArc
50
165.99999356424377
51
256.00052782778982
0
LINE
5
1CD
100
AcDbEntity
8
CUTOUTS
100
AcDbLine
10
-157.56936211899949
20
-47.967928347039859
30
0
11
-153.44453476782127
21
-31.424157369288899
31
0
0
ARC
5
1CE
100
AcDbEntity
8
CUTOUTS
100
AcDbCircle
10
-154.41483046692338
20
-31.182235364700617
30
0
40
1.0000000000000293
210
-0
220
0
230
1
100
AcDbArc
50
-14.000006435756772
51
75.999033888735212
0
LINE
5
1CF
100
AcDbEntity
8
CUTOUTS
100
AcDbLine
10
-154.17289221040377
20
-30.211943717806591
30
0
11
-161.147845758909
21
-28.472769710967938
31
0
0
ARC
5
1D0
100
AcDbEntity
8
CUTOUTS
100
AcDbCircle
10
-161.26881488716884
20
-28.957915534414944
30
0
40
0.50000000000001144
210
0
220
-0
230
1
100
AcDbArc
50
75.999033888730267
51
180
0
LINE
5
1D1
100
AcDbEntity
8
CUTOUTS
100
AcDbLine
10
-161.76881488716879
20
-28.957915534414944
30
0
11
-161.76881488716879
21
-29.38729000000011
31
0
0
ARC
5
1D2
100
AcDbEntity
8
CUTOUTS
100
AcDbCircle
10
-162.26881488716884
20
-29.387290000000135
30
0
40
0.49999999999998934
210
-0
220
0
230
1
100
AcDbArc
50
-90
51
0
0
LINE
5
1D3
100
AcDbEntity
8
CUTOUTS
100
AcDbLine
10
-162.26881488716884
20
-29.887290000000128
30
0
11
-165.5315648871688
21
-29.887290000000128
31
0
0
ARC
5
1D4
100
AcDbEntity
8
CUTOUTS
100
AcDbCircle
10
-165.5315648871688
20
-30.887290000000121
30
0
40
0.99999999999999645
210
0
220
-0
230
1
100
AcDbArc
50
90
51
180
0
LINE
5
1D5
100
AcDbEntity
8
CUTOUTS
100
AcDbLine
10
-166.53156488716883
20
-30.887290000000121
30
0
11
-166.53156488716883
21
-47.937290000000132
31
0
0
ARC
5
1D6
100
AcDbEntity
8
CUTOUTS
100
AcDbCircle
10
-167.53156488716883
20
-47.937290000000118
30
0
40
0.99999999999999645
210
-0
220
0
230
1
100
AcDbArc
50
270
51
360
0
LINE
5
1D7
100
AcDbEntity
8
CUTOUTS
100
AcDbLine
10
-167.53156488716883
20
-48.937290000000118
30
0
11
-214.15706488716887
21
-48.937290000000118
31
0
0
ARC
5
1D8
100
AcDbEntity
8
CUTOUTS
100
AcDbCircle
10
-214.15706488716881
20
-47.937290000000132
30
0
40
0.99999999999997868
210
0
220
0
230
1
100
AcDbArc
50
180
51
270
0
LINE
5
1D9
100
AcDbEntity
8
CUTOUTS
100
AcDbLine
10
-215.15706488716881
20
-47.937290000000125
30
0
11
-215.15706488716881
21
-31.162290000000141
31
0
0
ARC
5
1DA
100
AcDbEntity
8
CUTOUTS
100
AcDbCircle
10
-216.15706488716881
20
-31.162290000000141
30
0
40
1.0000000000000142
210
0
220
-0
230
1
100
AcDbArc
50
0
51
90
0
LINE
5
1DB
100
AcDbEntity
8
CUTOUTS
100
AcDbLine
10
-216.15706488716881
20
-30.162290000000127
30
0
11
-223.68151488716882
21
-30.162290000000134
31
0
0
ARC
5
1DC
100
AcDbEntity
8
CUTOUTS
100
AcDbCircle
10
-223.68151488716882
20
-29.162290000000155
30
0
40
1.0000000000000142
210
0
220
0
230
1
100
AcDbArc
50
180
51
270
0
LINE
5
1DD
100
AcDbEntity
8
CUTOUTS
100
AcDbLine
10
-224.68151488716885
20
-29.162290000000127
30
0
11
-224.68151488716885
21
-10.562390000000121
31
0
0
ARC
5
1DE
100
AcDbEntity
8
CUTOUTS
100
AcDbCircle
10
-223.68151488716882
20
-10.562390000000095
30
0
40
0.9999999999999698
210
0
220
-0
230
1
100
AcDbArc
50
90
51
180
0
LINE
5
1DF
100
AcDbEntity
8
CUTOUTS
100
AcDbLine
10
-223.68151488716882
20
-9.562390000000125
30
0
11
-211.39406488716884
21
-9.562390000000125
31
0
0
ARC
5
1E0
100
AcDbEntity
8
CUTOUTS
100
AcDbCircle
10
-211.39406488716884
20
-8.5623900000001285
30
0
40
0.99999999999999645
210
-0
220
0
230
1
100
AcDbArc
50
-90
51
0
0
LINE
5
1E1
100
AcDbEntity
8
CUTOUTS
100
AcDbLine
10
-210.39406488716884
20
-8.5623900000001285
30
0
11
-210.39406488716884
21
8.48760999999989
31
0
0
ARC
5
1E2
100
AcDbEntity
8
CUTOUTS
100
AcDbCircle
10
-209.39406488716884
20
8.48760999999989
30
0
40
0.99999999999999645
210
0
220
-0
230
1
100
AcDbArc
50
90
51
180
0
LINE
5
1E3
100
AcDbEntity
8
CUTOUTS
100
AcDbLine
10
-209.39406488716884
20
9.4876099999998864
30
0
11
-200.86781488716883
21
9.4876099999998864
31
0
0
LINE
5
1E4
100
AcDbEntity
8
PERIMETER
100
AcDbLine
10
-166.53460977594563
20
-60.44533603829457
30
0
11
-78.03736318145846
21
-82.509709389168663
31
0
0
ARC
5
1E5
100
AcDbEntity
8
PERIMETER
100
AcDbCircle
10
-74.045731682204917
20
-66.49981001490103
30
0
40
16.500000000000238
210
0
220
0
230
1
100
AcDbArc
50
256.00028550795429
51
269.9999999999996
0
LINE
5
1E6
100
AcDbEntity
8
PERIMETER
100
AcDbLine
10
-74.045731682205016
20
-82.999810014901271
30
0
11
-45.641898092132678
21
-82.9998100149013
31
0
0
ARC
5
1E7
100
AcDbEntity
8
PERIMETER
100
AcDbCircle
10
-45.641898092132749
20
-66.499810014900959
30
0
40
16.500000000000323
210
-0
220
0
230
1
100
AcDbArc
50
270.00000000000023
51
283.99971449204565
0
LINE
5
1E8
100
AcDbEntity
8
PERIMETER
100
AcDbLine
10
-41.650266592879213
20
-82.509709389168677
30
0
11
46.8469800016085
21
-60.445336038294428
31
0
0
ARC
5
1E9
100
AcDbEntity
8
PERIMETER
100
AcDbCircle
10
50.475735910019068
20
-74.999790014892042
30
0
40
14.999999999990763
210
0
220
-0
230
1
100
AcDbArc
50
89.999999999995666
51
103.9997144920479
0
LINE
5
1EA
100
AcDbEntity
8
PERIMETER
100
AcDbLine
10
50.475735910020205
20
-59.999790014901279
30
0
11
228.45691018934536
21
-59.999790014901095
31
0
0
ARC
5
1EB
100
AcDbEntity
8
PERIMETER
100
AcDbCircle
10
228.45691018934545
20
-54.999790014901123
30
0
40
4.9999999999999556
210
0
220
0
230
1
100
AcDbArc
50
-90.000000000000966
51
0
0
LINE
5
1EC
100
AcDbEntity
8
PERIMETER
100
AcDbLine
10
233.45691018934536
20
-54.999790014901102
30
0
11
233.45691018934593
21
77.999810014901257
31
0
0
ARC
5
1ED
100
AcDbEntity
8
PERIMETER
100
AcDbCircle
10
228.45691018934573
20
77.99981001490093
30
0
40
5.0000000000002132
210
0
220
-0
230
1
100
AcDbArc
50
0
51
89.99999999999838
0
LINE
5
1EE
100
AcDbEntity
8
PERIMETER
100
AcDbLine
10
228.45691018934588
20
82.999810014901158
30
0
11
-228.45691018934588
21
82.999810014901016
31
0
0
ARC
5
1EF
100
AcDbEntity
8
PERIMETER
100
AcDbCircle
10
-228.45691018934588
20
77.999810014900973
30
0
40
5.0000000000000355
210
0
220
-0
230
1
100
AcDbArc
50
90
51
180
0
LINE
5
1F0
100
AcDbEntity
8
PERIMETER
100
AcDbLine
10
-233.45691018934593
20
77.999810014901016
30
0
11
-233.45691018934593
21
-54.999790014901286
31
0
0
ARC
5
1F1
100
AcDbEntity
8
PERIMETER
100
AcDbCircle
10
-228.45691018934593
20
-54.999790014901265
30
0
40
5
210
0
220
0
230
1
100
AcDbArc
50
180
51
270
0
LINE
5
1F2
100
AcDbEntity
8
PERIMETER
100
AcDbLine
10
-228.45691018934593
20
-59.999790014901251
30
0
11
-170.16336568435781
21
-59.999790014901286
31
0
0
ARC
5
1F3
100
AcDbEntity
8
PERIMETER
100
AcDbCircle
10
-170.16336568435781
20
-74.999790014900697
30
0
40
14.999999999999416
210
0
220
-0
230
1
100
AcDbArc
50
76.000285507953961
51
90
0
ENDSEC
0
SECTION
2
OBJECTS
0
DICTIONARY
5
C
100
AcDbDictionary
3
ACAD_GROUP
350
D
3
ACAD_MLINESTYLE
350
17
0
DICTIONARY
5
D
100
AcDbDictionary
0
DICTIONARY
5
1A
330
C
100
AcDbDictionary
0
DICTIONARY
5
17
100
AcDbDictionary
0
ENDSEC
0
EOF
