0
SECTION
2
HEADER
9
$INSUNITS
70
4
9
$ACADVER
1
AC1014
9
$HANDSEED
5
FFFF
0
ENDSEC
0
SECTION
2
TABLES
0
TABLE
2
VPORT
5
8
100
AcDbSymbolTable
0
ENDTAB
0
TABLE
2
LTYPE
5
5
100
AcDbSymbolTable
70
2
0
LTYPE
5
14
100
AcDbSymbolTableRecord
100
AcDbLinetypeTableRecord
2
BYBLOCK
70
0
0
LTYPE
5
15
100
AcDbSymbolTableRecord
100
AcDbLinetypeTableRecord
2
BYLAYER
70
0
0
ENDTAB
0
TABLE
2
LAYER
5
2
100
AcDbSymbolTable
70
3
0
LAYER
5
50
100
AcDbSymbolTableRecord
100
AcDbLayerTableRecord
2
0
70
0
6
CONTINUOUS
0
LAYER
5
51
100
AcDbSymbolTableRecord
100
AcDbLayerTableRecord
2
CUTOUTS
70
0
62
1
6
CONTINUOUS
0
LAYER
5
52
100
AcDbSymbolTableRecord
100
AcDbLayerTableRecord
2
PERIMETER
70
0
62
5
6
CONTINUOUS
0
ENDTAB
0
TABLE
2
STYLE
5
3
100
AcDbSymbolTable
70
1
0
STYLE
5
11
100
AcDbSymbolTableRecord
100
AcDbTextStyleTableRecord
2
STANDARD
70
0
0
ENDTAB
0
TABLE
2
VIEW
5
6
100
AcDbSymbolTable
0
ENDTAB
0
TABLE
2
UCS
5
7
100
AcDbSymbolTable
0
ENDTAB
0
TABLE
2
APPID
5
9
100
AcDbSymbolTable
70
1
0
APPID
5
12
100
AcDbSymbolTableRecord
100
AcDbRegAppTableRecord
2
ACAD
70
0
0
ENDTAB
0
TABLE
2
DIMSTYLE
5
A
100
AcDbSymbolTable
0
ENDTAB
0
TABLE
2
BLOCK_RECORD
5
1
100
AcDbSymbolTable
70
2
0
BLOCK_RECORD
5
1F
100
AcDbSymbolTableRecord
100
AcDbBlockTableRecord
2
*MODEL_SPACE
0
BLOCK_RECORD
5
1B
100
AcDbSymbolTableRecord
100
AcDbBlockTableRecord
2
*PAPER_SPACE
0
ENDTAB
0
ENDSEC
0
SECTION
2
BLOCKS
0
BLOCK
5
20
100
AcDbEntity
100
AcDbBlockBegin
2
*MODEL_SPACE
0
ENDBLK
5
21
100
AcDbEntity
100
AcDbBlockEnd
0
BLOCK
5
1C
100
AcDbEntity
100
AcDbBlockBegin
2
*PAPER_SPACE
0
ENDBLK
5
1D
100
AcDbEntity
100
AcDbBlockEnd
0
ENDSEC
0
SECTION
2
ENTITIES
0
CIRCLE
5
100
100
AcDbEntity
8
CUTOUTS
100
AcDbCircle
10
144.90233702503889
20
-54.988815254734433
30
0
40
1.0999999999999943
210
0
220
0
230
1
0
CIRCLE
5
101
100
AcDbEntity
8
CUTOUTS
100
AcDbCircle
10
228.45691018934556
20
-54.999790014901336
30
0
40
1.0999999999999943
210
0
220
0
230
1
0
CIRCLE
5
102
100
AcDbEntity
8
CUTOUTS
100
AcDbCircle
10
-69.936227758643923
20
78.073492815154438
30
0
40
1.0999999999999943
210
0
220
0
230
1
0
CIRCLE
5
103
100
AcDbEntity
8
CUTOUTS
100
AcDbCircle
10
-147.00301152714846
20
78.073492815154438
30
0
40
1.0999999999999943
210
0
220
0
230
1
0
CIRCLE
5
104
100
AcDbEntity
8
CUTOUTS
100
AcDbCircle
10
-228.4820634430568
20
78.038859354687361
30
0
40
1.0999999999999943
210
0
220
0
230
1
0
CIRCLE
5
105
100
AcDbEntity
8
CUTOUTS
100
AcDbCircle
10
60.897499442742138
20
78.073492815154438
30
0
40
1.0999999999999943
210
0
220
0
230
1
0
CIRCLE
5
106
100
AcDbEntity
8
CUTOUTS
100
AcDbCircle
10
144.90233702503889
20
78.073492815154438
30
0
40
1.0999999999999943
210
0
220
0
230
1
0
CIRCLE
5
107
100
AcDbEntity
8
CUTOUTS
100
AcDbCircle
10
228.45691018934585
20
77.999810014900703
30
0
40
1.0999999999999943
210
0
220
0
230
1
0
CIRCLE
5
108
100
AcDbEntity
8
CUTOUTS
100
AcDbCircle
10
-147.00301152714846
20
-60.71821578179788
30
0
40
1.0999999999999943
210
0
220
0
230
1
0
CIRCLE
5
109
100
AcDbEntity
8
CUTOUTS
100
AcDbCircle
10
-59.844810363306173
20
-78.501848498742163
30
0
40
1.0999999999999943
210
0
220
0
230
1
0
CIRCLE
5
10A
100
AcDbEntity
8
CUTOUTS
100
AcDbCircle
10
5.3785375494771515
20
-65.943082921799743
30
0
40
1.0999999999999943
210
0
220
0
230
1
0
CIRCLE
5
10B
100
AcDbEntity
8
CUTOUTS
100
AcDbCircle
10
60.897499442742138
20
-54.988815254734433
30
0
40
1.0999999999999943
210
0
220
0
230
1
0
CIRCLE
5
10C
100
AcDbEntity
8
CUTOUTS
100
AcDbCircle
10
-228.48191018934583
20
11.499587341614621
30
0
40
1.0999999999999943
210
0
220
0
230
1
0
CIRCLE
5
10D
100
AcDbEntity
8
CUTOUTS
100
AcDbCircle
10
228.45691018934585
20
11.500009999999659
30
0
40
1.0999999999999943
210
0
220
0
230
1
0
CIRCLE
5
10E
100
AcDbEntity
8
CUTOUTS
100
AcDbCircle
10
-67.038326051215904
20
72.603677030884484
30
0
40
1.0999999999999943
210
0
220
0
230
1
0
CIRCLE
5
10F
100
AcDbEntity
8
CUTOUTS
100
AcDbCircle
10
-42.474039477155827
20
61.677889066912272
30
0
40
3.9999999999999858
210
0
220
0
230
1
0
CIRCLE
5
110
100
AcDbEntity
8
CUTOUTS
100
AcDbCircle
10
-53.038326051215918
20
72.603677030884484
30
0
40
1.0999999999999943
210
0
220
0
230
1
0
CIRCLE
5
111
100
AcDbEntity
8
CUTOUTS
100
AcDbCircle
10
-53.038326051215918
20
60.103677030884484
30
0
40
1.0999999999999943
210
0
220
0
230
1
0
CIRCLE
5
112
100
AcDbEntity
8
CUTOUTS
100
AcDbCircle
10
-67.038326051215904
20
60.103677030884484
30
0
40
1.0999999999999943
210
0
220
0
230
1
0
CIRCLE
5
113
100
AcDbEntity
8
CUTOUTS
100
AcDbCircle
10
-228.48191018934583
20
-54.988815254734433
30
0
40
1.0999999999999943
210
0
220
0
230
1
0
CIRCLE
5
114
100
AcDbEntity
8
CUTOUTS
100
AcDbCircle
10
-63.105598287531137
20
48.154243574070676
30
0
40
3.9999999999999858
210
0
220
0
230
1
0
CIRCLE
5
115
100
AcDbEntity
8
CUTOUTS
100
AcDbCircle
10
5.3785375494771515
20
78.073492815154438
30
0
40
1.0999999999999943
210
0
220
0
230
1
0
CIRCLE
5
116
100
AcDbEntity
8
CUTOUTS
100
AcDbCircle
10
-50.14042434378787
20
78.073492815154438
30
0
40
1.0999999999999943
210
0
220
0
230
1
0
LINE
5
117
100
AcDbEntity
8
PERIMETER
100
AcDbLine
10
233.45691018934548
20
-54.999790014901315
30
0
11
233.45691018934576
21
77.999810014900646
31
0
0
ARC
5
118
100
AcDbEntity
8
PERIMETER
100
AcDbCircle
10
228.45691018934585
20
77.999810014900703
30
0
40
4.9999999999999289
210
-0
220
0
230
1
100
AcDbArc
50
0
51
90.000000000000981
0
LINE
5
119
100
AcDbEntity
8
PERIMETER
100
AcDbLine
10
228.45691018934576
20
82.99981001490066
30
0
11
-228.45691018934585
21
82.999810014900802
31
0
0
ARC
5
11A
100
AcDbEntity
8
PERIMETER
100
AcDbCircle
10
-228.45691018934582
20
77.99981001490076
30
0
40
5.0000000000000355
210
0
220
0
230
1
100
AcDbArc
50
90.000000000000654
51
180
0
LINE
5
11B
100
AcDbEntity
8
PERIMETER
100
AcDbLine
10
-233.45691018934582
20
77.999810014900802
30
0
11
-233.45691018934582
21
-54.9997900149015
31
0
0
ARC
5
11C
100
AcDbEntity
8
PERIMETER
100
AcDbCircle
10
-228.45691018934582
20
-54.999790014901478
30
0
40
5
210
0
220
0
230
1
100
AcDbArc
50
180
51
269.99999999999972
0
LINE
5
11D
100
AcDbEntity
8
PERIMETER
100
AcDbLine
10
-228.45691018934582
20
-59.9997900149015
30
0
11
-170.1633656843577
21
-59.9997900149015
31
0
0
ARC
5
11E
100
AcDbEntity
8
PERIMETER
100
AcDbCircle
10
-170.1633656843577
20
-74.99979001490091
30
0
40
14.999999999999416
210
0
220
-0
230
1
100
AcDbArc
50
76.000285507953862
51
90
0
LINE
5
11F
100
AcDbEntity
8
PERIMETER
100
AcDbLine
10
-166.53460977594548
20
-60.445336038294784
30
0
11
-78.037363181458318
21
-82.509709389168876
31
0
0
ARC
5
120
100
AcDbEntity
8
PERIMETER
100
AcDbCircle
10
-74.045731682204803
20
-66.499810014901243
30
0
40
16.500000000000238
210
0
220
0
230
1
100
AcDbArc
50
256.00028550795429
51
269.9999999999996
0
LINE
5
121
100
AcDbEntity
8
PERIMETER
100
AcDbLine
10
-74.045731682204917
20
-82.999810014901499
30
0
11
-45.641898092132571
21
-82.999810014901513
31
0
0
ARC
5
122
100
AcDbEntity
8
PERIMETER
100
AcDbCircle
10
-45.641898092132642
20
-66.499810014901172
30
0
40
16.500000000000323
210
-0
220
0
230
1
100
AcDbArc
50
270.00000000000023
51
283.99971449204565
0
LINE
5
123
100
AcDbEntity
8
PERIMETER
100
AcDbLine
10
-41.650266592879106
20
-82.509709389168904
30
0
11
46.846980001608607
21
-60.445336038294641
31
0
0
ARC
5
124
100
AcDbEntity
8
PERIMETER
100
AcDbCircle
10
50.475735910019175
20
-74.999790014892255
30
0
40
14.999999999990763
210
0
220
-0
230
1
100
AcDbArc
50
89.999999999995666
51
103.9997144920479
0
LINE
5
125
100
AcDbEntity
8
PERIMETER
100
AcDbLine
10
50.475735910020312
20
-59.999790014901492
30
0
11
228.45691018934548
21
-59.999790014901308
31
0
0
ARC
5
126
100
AcDbEntity
8
PERIMETER
100
AcDbCircle
10
228.45691018934556
20
-54.999790014901336
30
0
40
4.9999999999999556
210
0
220
0
230
1
100
AcDbArc
50
-90.000000000000966
51
0
0
ENDSEC
0
SECTION
2
OBJECTS
0
DICTIONARY
5
C
100
AcDbDictionary
3
ACAD_GROUP
350
D
3
ACAD_MLINESTYLE
350
17
0
DICTIONARY
5
D
100
AcDbDictionary
0
DICTIONARY
5
1A
330
C
100
AcDbDictionary
0
DICTIONARY
5
17
100
AcDbDictionary
0
ENDSEC
0
EOF
