0
SECTION
2
HEADER
9
$INSUNITS
70
4
9
$ACADVER
1
AC1014
9
$HANDSEED
5
FFFF
0
ENDSEC
0
SECTION
2
TABLES
0
TABLE
2
VPORT
5
8
100
AcDbSymbolTable
0
ENDTAB
0
TABLE
2
LTYPE
5
5
100
AcDbSymbolTable
70
2
0
LTYPE
5
14
100
AcDbSymbolTableRecord
100
AcDbLinetypeTableRecord
2
BYBLOCK
70
0
0
LTYPE
5
15
100
AcDbSymbolTableRecord
100
AcDbLinetypeTableRecord
2
BYLAYER
70
0
0
ENDTAB
0
TABLE
2
LAYER
5
2
100
AcDbSymbolTable
70
3
0
LAYER
5
50
100
AcDbSymbolTableRecord
100
AcDbLayerTableRecord
2
0
70
0
6
CONTINUOUS
0
LAYER
5
51
100
AcDbSymbolTableRecord
100
AcDbLayerTableRecord
2
CUTOUTS
70
0
62
1
6
CONTINUOUS
0
LAYER
5
52
100
AcDbSymbolTableRecord
100
AcDbLayerTableRecord
2
PERIMETER
70
0
62
5
6
CONTINUOUS
0
ENDTAB
0
TABLE
2
STYLE
5
3
100
AcDbSymbolTable
70
1
0
STYLE
5
11
100
AcDbSymbolTableRecord
100
AcDbTextStyleTableRecord
2
STANDARD
70
0
0
ENDTAB
0
TABLE
2
VIEW
5
6
100
AcDbSymbolTable
0
ENDTAB
0
TABLE
2
UCS
5
7
100
AcDbSymbolTable
0
ENDTAB
0
TABLE
2
APPID
5
9
100
AcDbSymbolTable
70
1
0
APPID
5
12
100
AcDbSymbolTableRecord
100
AcDbRegAppTableRecord
2
ACAD
70
0
0
ENDTAB
0
TABLE
2
DIMSTYLE
5
A
100
AcDbSymbolTable
0
ENDTAB
0
TABLE
2
BLOCK_RECORD
5
1
100
AcDbSymbolTable
70
2
0
BLOCK_RECORD
5
1F
100
AcDbSymbolTableRecord
100
AcDbBlockTableRecord
2
*MODEL_SPACE
0
BLOCK_RECORD
5
1B
100
AcDbSymbolTableRecord
100
AcDbBlockTableRecord
2
*PAPER_SPACE
0
ENDTAB
0
ENDSEC
0
SECTION
2
BLOCKS
0
BLOCK
5
20
100
AcDbEntity
100
AcDbBlockBegin
2
*MODEL_SPACE
0
ENDBLK
5
21
100
AcDbEntity
100
AcDbBlockEnd
0
BLOCK
5
1C
100
AcDbEntity
100
AcDbBlockBegin
2
*PAPER_SPACE
0
ENDBLK
5
1D
100
AcDbEntity
100
AcDbBlockEnd
0
ENDSEC
0
SECTION
2
ENTITIES
0
CIRCLE
5
100
100
AcDbEntity
8
CUTOUTS
100
AcDbCircle
10
-147.00301152714857
20
78.073492815154637
30
0
40
1.6000000000000014
210
0
220
0
230
1
0
CIRCLE
5
101
100
AcDbEntity
8
CUTOUTS
100
AcDbCircle
10
-228.48206344305694
20
78.03885935468756
30
0
40
1.6000000000000369
210
0
220
0
230
1
0
CIRCLE
5
102
100
AcDbEntity
8
CUTOUTS
100
AcDbCircle
10
-228.48191018934591
20
11.499587341614816
30
0
40
1.6000000000000369
210
0
220
0
230
1
0
CIRCLE
5
103
100
AcDbEntity
8
CUTOUTS
100
AcDbCircle
10
-69.936227758644023
20
78.073492815154637
30
0
40
1.6000000000000014
210
0
220
0
230
1
0
CIRCLE
5
104
100
AcDbEntity
8
CUTOUTS
100
AcDbCircle
10
-50.140424343787977
20
78.073492815154637
30
0
40
1.6000000000000014
210
0
220
0
230
1
0
CIRCLE
5
105
100
AcDbEntity
8
CUTOUTS
100
AcDbCircle
10
5.3785375494770449
20
78.073492815154637
30
0
40
1.6000000000000369
210
0
220
0
230
1
0
CIRCLE
5
106
100
AcDbEntity
8
CUTOUTS
100
AcDbCircle
10
60.897499442742031
20
78.073492815154637
30
0
40
1.6000000000000369
210
0
220
0
230
1
0
CIRCLE
5
107
100
AcDbEntity
8
CUTOUTS
100
AcDbCircle
10
144.90233702503878
20
78.073492815154637
30
0
40
1.6000000000000369
210
0
220
0
230
1
0
CIRCLE
5
108
100
AcDbEntity
8
CUTOUTS
100
AcDbCircle
10
228.45691018934573
20
77.999810014900902
30
0
40
1.5999999999999659
210
0
220
0
230
1
0
CIRCLE
5
109
100
AcDbEntity
8
CUTOUTS
100
AcDbCircle
10
-228.48191018934591
20
-54.988815254734234
30
0
40
1.6000000000000369
210
0
220
0
230
1
0
CIRCLE
5
10A
100
AcDbEntity
8
CUTOUTS
100
AcDbCircle
10
-147.00301152714857
20
-60.718215781797689
30
0
40
1.6000000000000014
210
0
220
0
230
1
0
CIRCLE
5
10B
100
AcDbEntity
8
CUTOUTS
100
AcDbCircle
10
-59.84481036330628
20
-78.501848498741964
30
0
40
1.6000000000000014
210
0
220
0
230
1
0
CIRCLE
5
10C
100
AcDbEntity
8
CUTOUTS
100
AcDbCircle
10
5.3785375494770449
20
-65.943082921799544
30
0
40
1.6000000000000369
210
0
220
0
230
1
0
CIRCLE
5
10D
100
AcDbEntity
8
CUTOUTS
100
AcDbCircle
10
60.897499442742031
20
-54.988815254734234
30
0
40
1.6000000000000369
210
0
220
0
230
1
0
CIRCLE
5
10E
100
AcDbEntity
8
CUTOUTS
100
AcDbCircle
10
144.90233702503878
20
-54.988815254734234
30
0
40
1.6000000000000369
210
0
220
0
230
1
0
CIRCLE
5
10F
100
AcDbEntity
8
CUTOUTS
100
AcDbCircle
10
228.45691018934545
20
-54.999790014901144
30
0
40
1.5999999999999659
210
0
220
0
230
1
0
CIRCLE
5
110
100
AcDbEntity
8
CUTOUTS
100
AcDbCircle
10
228.45691018934573
20
11.500009999999854
30
0
40
1.5999999999999659
210
0
220
0
230
1
0
ARC
5
111
100
AcDbEntity
8
PERIMETER
100
AcDbCircle
10
-170.16336568435776
20
-74.999790014900341
30
0
40
14.999999999999043
210
0
220
-0
230
1
100
AcDbArc
50
76.000285507953734
51
90.000000000000213
0
LINE
5
112
100
AcDbEntity
8
PERIMETER
100
AcDbLine
10
-166.5346097759456
20
-60.445336038294585
30
0
11
-78.037363181458446
21
-82.509709389168677
31
0
0
ARC
5
113
100
AcDbEntity
8
PERIMETER
100
AcDbCircle
10
-74.045731682204917
20
-66.499810014901044
30
0
40
16.500000000000256
210
0
220
0
230
1
100
AcDbArc
50
256.00028550795429
51
269.9999999999996
0
LINE
5
114
100
AcDbEntity
8
PERIMETER
100
AcDbLine
10
-74.045731682205016
20
-82.9998100149013
30
0
11
-45.641898092132678
21
-82.999810014901314
31
0
0
ARC
5
115
100
AcDbEntity
8
PERIMETER
100
AcDbCircle
10
-45.641898092132749
20
-66.499810014900973
30
0
40
16.500000000000341
210
-0
220
0
230
1
100
AcDbArc
50
270.00000000000023
51
283.99971449204565
0
LINE
5
116
100
AcDbEntity
8
PERIMETER
100
AcDbLine
10
-41.650266592879213
20
-82.509709389168705
30
0
11
46.8469800016085
21
-60.445336038294442
31
0
0
ARC
5
117
100
AcDbEntity
8
PERIMETER
100
AcDbCircle
10
50.475735910019068
20
-74.999790014892056
30
0
40
14.999999999990763
210
0
220
-0
230
1
100
AcDbArc
50
89.999999999995666
51
103.9997144920479
0
LINE
5
118
100
AcDbEntity
8
PERIMETER
100
AcDbLine
10
50.475735910020205
20
-59.999790014901293
30
0
11
228.45691018934545
21
-59.999790014901109
31
0
0
ARC
5
119
100
AcDbEntity
8
PERIMETER
100
AcDbCircle
10
228.45691018934545
20
-54.999790014901144
30
0
40
4.9999999999999645
210
-0
220
0
230
1
100
AcDbArc
50
-90
51
0
0
LINE
5
11A
100
AcDbEntity
8
PERIMETER
100
AcDbLine
10
233.45691018934536
20
-54.999790014901116
30
0
11
233.45691018934602
21
77.999810014901229
31
0
0
ARC
5
11B
100
AcDbEntity
8
PERIMETER
100
AcDbCircle
10
228.45691018934573
20
77.999810014900902
30
0
40
5.0000000000002842
210
0
220
-0
230
1
100
AcDbArc
50
0
51
89.99999999999838
0
LINE
5
11C
100
AcDbEntity
8
PERIMETER
100
AcDbLine
10
228.45691018934588
20
82.999810014901215
30
0
11
-53.243275286018665
21
82.999810014901314
31
0
0
ARC
5
11D
100
AcDbEntity
8
PERIMETER
100
AcDbCircle
10
-53.243275286018665
20
82.4998100149013
30
0
40
0.50000000000000711
210
0
220
-0
230
1
100
AcDbArc
50
90
51
180
0
LINE
5
11E
100
AcDbEntity
8
PERIMETER
100
AcDbLine
10
-53.743275286018672
20
82.499810014901342
30
0
11
-53.743275286019063
21
76.120124810245272
31
0
0
ARC
5
11F
100
AcDbEntity
8
PERIMETER
100
AcDbCircle
10
-53.243275286019056
20
76.120124810245287
30
0
40
0.50000000000000711
210
0
220
0
230
1
100
AcDbArc
50
180
51
269.99999999999187
0
LINE
5
120
100
AcDbEntity
8
PERIMETER
100
AcDbLine
10
-53.243275286019127
20
75.620124810245272
30
0
11
-41.962925474158048
21
75.620124810245258
31
0
0
ARC
5
121
100
AcDbEntity
8
PERIMETER
100
AcDbCircle
10
-41.962925474158013
20
75.120124810245287
30
0
40
0.49999999999993605
210
0
220
-0
230
1
100
AcDbArc
50
0
51
90.000000000004079
0
LINE
5
122
100
AcDbEntity
8
PERIMETER
100
AcDbLine
10
-41.462925474158077
20
75.120124810245287
30
0
11
-41.462925474158077
21
73.999810060637898
31
0
0
ARC
5
123
100
AcDbEntity
8
PERIMETER
100
AcDbCircle
10
-40.96292547415807
20
73.999810060637898
30
0
40
0.50000000000000711
210
0
220
0
230
1
100
AcDbArc
50
180
51
270
0
LINE
5
124
100
AcDbEntity
8
PERIMETER
100
AcDbLine
10
-40.96292547415807
20
73.499810060637884
30
0
11
-40.601682157008412
21
73.499810060637884
31
0
0
LINE
5
125
100
AcDbEntity
8
PERIMETER
100
AcDbLine
10
-40.601682157008412
20
73.499810060637884
30
0
11
136.95553287090939
21
73.999810014900987
31
0
0
LINE
5
126
100
AcDbEntity
8
PERIMETER
100
AcDbLine
10
136.95553287090939
20
73.999810014900987
30
0
11
222.45691018934565
21
73.999810014900774
31
0
0
ARC
5
127
100
AcDbEntity
8
PERIMETER
100
AcDbCircle
10
222.45691018934571
20
71.999810014900788
30
0
40
1.9999999999999574
210
0
220
-0
230
1
100
AcDbArc
50
0
51
90.00000000000081
0
LINE
5
128
100
AcDbEntity
8
PERIMETER
100
AcDbLine
10
224.45691018934568
20
71.999810014900802
30
0
11
224.45691018934539
21
-48.99979001490113
31
0
0
ARC
5
129
100
AcDbEntity
8
PERIMETER
100
AcDbCircle
10
222.45691018934536
20
-48.999790014901102
30
0
40
2.0000000000000107
210
-0
220
0
230
1
100
AcDbArc
50
270
51
360
0
LINE
5
12A
100
AcDbEntity
8
PERIMETER
100
AcDbLine
10
222.45691018934536
20
-50.999790014901116
30
0
11
50.475735910020205
21
-50.999790014901301
31
0
0
ARC
5
12B
100
AcDbEntity
8
PERIMETER
100
AcDbCircle
10
50.475735910019068
20
-74.999790014892056
30
0
40
23.999999999990756
210
0
220
-0
230
1
100
AcDbArc
50
89.999999999997286
51
103.99971449204739
0
LINE
5
12C
100
AcDbEntity
8
PERIMETER
100
AcDbLine
10
44.669726456560994
20
-51.712663652330448
30
0
11
-43.827520137926577
21
-73.777037003204669
31
0
0
ARC
5
12D
100
AcDbEntity
8
PERIMETER
100
AcDbCircle
10
-45.641898092132749
20
-66.499810014900973
30
0
40
7.5000000000003375
210
-0
220
0
230
1
100
AcDbArc
50
270.00000000000023
51
283.99971449204543
0
LINE
5
12E
100
AcDbEntity
8
PERIMETER
100
AcDbLine
10
-45.641898092132713
20
-73.999810014901314
30
0
11
-74.045731682204973
21
-73.9998100149013
31
0
0
ARC
5
12F
100
AcDbEntity
8
PERIMETER
100
AcDbCircle
10
-74.045731682204917
20
-66.499810014901044
30
0
40
7.5000000000002496
210
0
220
0
230
1
100
AcDbArc
50
256.00028550795446
51
269.9999999999996
0
LINE
5
130
100
AcDbEntity
8
PERIMETER
100
AcDbLine
10
-75.860109636411082
20
-73.777037003204654
30
0
11
-164.35735623089823
21
-51.712663652330555
31
0
0
ARC
5
131
100
AcDbEntity
8
PERIMETER
100
AcDbCircle
10
-170.16336568435776
20
-74.999790014900341
30
0
40
23.999999999999048
210
0
220
-0
230
1
100
AcDbArc
50
76.000285507953905
51
90.000000000000142
0
LINE
5
132
100
AcDbEntity
8
PERIMETER
100
AcDbLine
10
-170.16336568435781
20
-50.999790014901301
30
0
11
-222.45691018934593
21
-50.999790014901279
31
0
0
ARC
5
133
100
AcDbEntity
8
PERIMETER
100
AcDbCircle
10
-222.45691018934593
20
-48.999790014901308
30
0
40
1.9999999999999574
210
0
220
0
230
1
100
AcDbArc
50
180
51
270
0
LINE
5
134
100
AcDbEntity
8
PERIMETER
100
AcDbLine
10
-224.45691018934593
20
-48.999790014901308
30
0
11
-224.45691018934596
21
71.999808669313325
31
0
0
ARC
5
135
100
AcDbEntity
8
PERIMETER
100
AcDbCircle
10
-222.45691018934596
20
71.999808669313353
30
0
40
1.9999999999999751
210
0
220
-0
230
1
100
AcDbArc
50
89.99999999999919
51
180
0
LINE
5
136
100
AcDbEntity
8
PERIMETER
100
AcDbLine
10
-222.45691018934593
20
73.999808669313325
30
0
11
-79.506440562005011
21
73.999808669313325
31
0
0
ARC
5
137
100
AcDbEntity
8
PERIMETER
100
AcDbCircle
10
-79.506440562005025
20
74.499808669313339
30
0
40
0.50000000000000711
210
-0
220
0
230
1
100
AcDbArc
50
-90
51
0
0
LINE
5
138
100
AcDbEntity
8
PERIMETER
100
AcDbLine
10
-79.006440562005025
20
74.499808669313339
30
0
11
-79.006440562005054
21
75.120124810245287
31
0
0
ARC
5
139
100
AcDbEntity
8
PERIMETER
100
AcDbCircle
10
-78.506440562005082
20
75.120124810245329
30
0
40
0.4999999999999738
210
0
220
-0
230
1
100
AcDbArc
50
89.999977738763448
51
180
0
LINE
5
13A
100
AcDbEntity
8
PERIMETER
100
AcDbLine
10
-78.506440367739145
20
75.620124810245258
30
0
11
-67.243275286019042
21
75.620124810245272
31
0
0
ARC
5
13B
100
AcDbEntity
8
PERIMETER
100
AcDbCircle
10
-67.243275286019042
20
76.120124810245287
30
0
40
0.50000000000000711
210
-0
220
0
230
1
100
AcDbArc
50
270
51
360
0
LINE
5
13C
100
AcDbEntity
8
PERIMETER
100
AcDbLine
10
-66.743275286019042
20
76.120124810245272
30
0
11
-66.743275286019042
21
82.499810014900987
31
0
0
ARC
5
13D
100
AcDbEntity
8
PERIMETER
100
AcDbCircle
10
-67.243275286019013
20
82.499810014901016
30
0
40
0.49999999999997158
210
-0
220
0
230
1
100
AcDbArc
50
0
51
90.000000000003254
0
LINE
5
13E
100
AcDbEntity
8
PERIMETER
100
AcDbLine
10
-67.243275286019042
20
82.999810014900987
30
0
11
-228.45691018934593
21
82.999810014900987
31
0
0
ARC
5
13F
100
AcDbEntity
8
PERIMETER
100
AcDbCircle
10
-228.45691018934588
20
77.999810014900959
30
0
40
5.0000000000000355
210
0
220
0
230
1
100
AcDbArc
50
90.000000000000654
51
180
0
LINE
5
140
100
AcDbEntity
8
PERIMETER
100
AcDbLine
10
-233.45691018934593
20
77.999810014900987
30
0
11
-233.45691018934593
21
-54.999790014901308
31
0
0
ARC
5
141
100
AcDbEntity
8
PERIMETER
100
AcDbCircle
10
-228.45691018934593
20
-54.999790014901286
30
0
40
5
210
0
220
0
230
1
100
AcDbArc
50
180
51
270
0
LINE
5
142
100
AcDbEntity
8
PERIMETER
100
AcDbLine
10
-228.45691018934593
20
-59.999790014901286
30
0
11
-170.16336568435781
21
-59.999790014901308
31
0
0
ENDSEC
0
SECTION
2
OBJECTS
0
DICTIONARY
5
C
100
AcDbDictionary
3
ACAD_GROUP
350
D
3
ACAD_MLINESTYLE
350
17
0
DICTIONARY
5
D
100
AcDbDictionary
0
DICTIONARY
5
1A
330
C
100
AcDbDictionary
0
DICTIONARY
5
17
100
AcDbDictionary
0
ENDSEC
0
EOF
